<svg xmlns="http://www.w3.org/2000/svg" width="2021.27" height="636.407" viewBox="0 0 2021.27 636.407">
  <g id="Group_18377" data-name="Group 18377" transform="translate(3.635 -7134.514)">
    <path id="Path_31816" data-name="Path 31816" d="M1551.26,14.965c-39.322,17.712-67.2,52.636-101.981,77.831a236.816,236.816,0,0,1-133.247,44.466c-86.955,1.746-166.43-43.531-244.371-81.324C993.786,18.208,903.122-13.6,821.473,15.713,769.492,34.36,729.211,75.334,679.787,99.656c-95.779,47.023-211.379,25.819-313.1-7.3S163.424,14.653,56.2,17.834c-30.37.935-60.1,5.862-89.641,12.411V621.65H1987.828v-460.5c-60.8-4.989-124.039-39.6-176.4-75.212C1733.867,33.238,1637.129-23.7,1551.26,14.965Z" transform="translate(29.806 7132.271)" fill="#fdce0c" opacity="0.29"/>
    <path id="Path_31815" data-name="Path 31815" d="M1512.271,14.965C1473.917,32.677,1446.726,67.6,1412.8,92.8a227.246,227.246,0,0,1-129.969,44.466c-84.816,1.746-162.335-43.531-238.358-81.324C968.512,18.208,880.079-13.6,800.439,15.713c-50.7,18.647-89.992,59.621-138.2,83.943-93.423,47.023-206.178,25.819-305.4-7.3S158.58,14.653,53.994,17.834C24.371,18.769-4.628,23.7-33.441,30.244V621.65H1938.1v-460.5c-59.309-4.989-120.988-39.6-172.064-75.212C1690.385,33.238,1596.027-23.7,1512.271,14.965Z" transform="translate(29.806 7149.271)" fill="#e0b503"/>
  </g>
</svg>
