<svg xmlns="http://www.w3.org/2000/svg" xmlns:xlink="http://www.w3.org/1999/xlink" width="518" height="517" viewBox="0 0 518 517">
  <defs>
    <filter id="Rectangle_18502" x="0" y="0" width="518" height="517" filterUnits="userSpaceOnUse">
      <feOffset dy="19" input="SourceAlpha"/>
      <feGaussianBlur stdDeviation="25" result="blur"/>
      <feFlood flood-opacity="0.102"/>
      <feComposite operator="in" in2="blur"/>
      <feComposite in="SourceGraphic"/>
    </filter>
    <filter id="Path_13197" x="217.159" y="252.09" width="77.488" height="76.98" filterUnits="userSpaceOnUse">
      <feOffset dy="3" input="SourceAlpha"/>
      <feGaussianBlur stdDeviation="7.5" result="blur-2"/>
      <feFlood flood-opacity="0.161"/>
      <feComposite operator="in" in2="blur-2"/>
      <feComposite in="SourceGraphic"/>
    </filter>
  </defs>
  <g id="Component_8_4" data-name="Component 8 – 4" transform="translate(75 56)">
    <g transform="matrix(1, 0, 0, 1, -75, -56)" filter="url(#Rectangle_18502)">
      <rect id="Rectangle_18502-2" data-name="Rectangle 18502" width="368" height="367" rx="19" transform="translate(75 56)" fill="#fff"/>
    </g>
    <g id="Group_16565" data-name="Group 16565" transform="translate(-3.5 -233.968)">
      <text id="Add_your_product_or_services" data-name="Add your product or services" transform="translate(205.5 539)" fill="#273b60" font-size="25" font-family="SegoeUI-Bold, Segoe UI" font-weight="700"><tspan x="-123.944" y="0">Add your product or </tspan><tspan x="-46.326" y="33">services</tspan></text>
      <g id="Group_16236" data-name="Group 16236">
        <path id="Path_2919" data-name="Path 2919" d="M303.952,236.029s74.4-10.316,84.257,39.6c5.218,26.414,43.6,7.327,65.5,16.494,15.592,6.526,7.535,28.634,16.9,34.4,46.16,28.413,34.149,152.675,25.187,152.657l-307.814-.507s-24.9-37.255-2.359-59.011,7.063-31.7,4.324-40.111c-3.145-9.654-14.406-37.216,17.674-49.283,16.47-6.195,21.586-23.343,22.834-34.79,2.132-19.56,13.077-36.969,29.688-46.475C270.663,242.982,284.85,238.04,303.952,236.029Z" transform="translate(-152.686 24.821)" fill="#dee5eb" opacity="0.51"/>
        <ellipse id="Ellipse_803" data-name="Ellipse 803" cx="109.694" cy="18.765" rx="109.694" ry="18.765" transform="translate(78 460.586)" fill="#273b60" opacity="0.13"/>
        <g id="Group_15415" data-name="Group 15415" transform="translate(211.177 412.577)">
          <path id="Path_1215" data-name="Path 1215" d="M565.847,1186.515s-7.254,5.394-8.668,5.067,5.3-5.823,5.3-5.823c-2.527-1.215-10.383-.453-10.383-.453s-2.616,8.438-3.907,7.773,2.7-7.353,2.7-7.353c-2.815-.17-6.267,1.92-6.267,1.92-4.726,3.732.311,9.608.311,9.608a14.364,14.364,0,0,1-3.954,5.55,12.47,12.47,0,0,0-4.558,8.784l.774.069s1.227-5.245,3.455-7.727c.087-.089.213-.219.368-.375.363-.336.617-.589.788-.776,1.109-1.066,2.642-2.423,3.38-2.555a1.421,1.421,0,0,1-.031-.371c.01.119.021.241.031.371.253,2.97,6.014,5.563,9.558,6.1s2.449-.923,1.227-3.084-5.086-3.127-5.968-4.122.941-1,3.077-.022,2.428,3.576,5.854,5.217,8.58-4.044,8.58-4.044c-2.73-.139-6.629-3.1-6.488-4.011s6.618,1.565,7.725,1.684,3.627-1.258,4.016-5.719S565.847,1186.515,565.847,1186.515Z" transform="translate(-497.937 -1156.329)" fill="#106d0b"/>
          <g id="Group_99" data-name="Group 99" transform="translate(0 12.789)">
            <path id="Path_1216" data-name="Path 1216" d="M267.452,1082.137s8.012-4.487,4.273-10.575c0,0-2.991-3.739-6.2-4.7,0,0,1.709,9.08,0,9.293s-1.175-10.255-1.175-10.255-8.439-4.059-11.75-3.739c0,0,5.234,8.866,3.525,8.652s-7.584-9.187-7.584-9.187-8.653-1.6-10.041,3.525.855,7.691,2.136,8.012,9.507.213,9.293,1.282-5.768,2.778-8.866,1.816c0,0,3.418,8.439,7.9,8.012s5.875-3.2,8.653-3.418,4.807.534,3.418,1.282-6.089.245-8.332,2.152-4.059,3.082.107,3.937,11.644.321,13.139-2.884Z" transform="translate(-238.065 -1061.39)" fill="#3c9737"/>
            <path id="Path_1217" data-name="Path 1217" d="M299.237,1126.16a17.041,17.041,0,0,1-2.137-7.8c-2.564-8.119-25-15.382-25-15.382,28.521,11.537,23.5,18.587,23.5,18.587.769.448,1.921,2.586,2.721,4.227.114.279.294.665.562,1.19h0c.109.237.2.431.255.567,1.468,3.674.691,10.019.691,10.019l.89.239A14.8,14.8,0,0,0,299.237,1126.16Z" transform="translate(-267.713 -1097.616)" fill="#3c9737"/>
          </g>
          <g id="Group_100" data-name="Group 100" transform="translate(35.19 0)">
            <path id="Path_1218" data-name="Path 1218" d="M517.83,989.589s-10.561-5.914-5.632-13.94c0,0,3.943-4.928,8.167-6.2,0,0-2.253,11.969,0,12.25s1.549-13.518,1.549-13.518,11.124-5.351,15.489-4.928c0,0-6.9,11.687-4.647,11.405s10-12.109,10-12.109,11.406-2.112,13.236,4.647-1.127,10.138-2.816,10.561-12.532.281-12.251,1.69,7.6,3.661,11.687,2.394c0,0-4.506,11.124-10.42,10.561s-7.745-4.224-11.406-4.506-6.336.7-4.506,1.69,8.026.323,10.983,2.837,5.351,4.063-.141,5.189-15.348.422-17.319-3.8Z" transform="translate(-510.887 -962.24)" fill="#3c9737"/>
            <path id="Path_1219" data-name="Path 1219" d="M560,1017.064s-29.57,9.575-32.95,20.277a22.462,22.462,0,0,1-2.816,10.279,19.5,19.5,0,0,0-1.96,15.354l1.173-.315s-1.025-8.364.91-13.207c.079-.178.193-.434.337-.747h0c.353-.691.591-1.2.741-1.568,1.054-2.162,2.574-4.98,3.587-5.572C529.019,1041.565,522.4,1032.271,560,1017.064Z" transform="translate(-520.105 -1009.993)" fill="#3c9737"/>
          </g>
          <path id="Path_1220" data-name="Path 1220" d="M422.259,1375.026a20.687,20.687,0,0,0,20.687-20.687H401.572A20.687,20.687,0,0,0,422.259,1375.026Z" transform="translate(-380.482 -1303.765)" fill="#fdce0c"/>
          <path id="Path_1221" data-name="Path 1221" d="M444.374,1374.867a20.7,20.7,0,0,1-23.256-20.529h5.139A20.69,20.69,0,0,0,444.374,1374.867Z" transform="translate(-397.507 -1303.764)" fill="#d6ae05"/>
          <path id="Path_1222" data-name="Path 1222" d="M438.749,1503.694H401.908a2.552,2.552,0,0,0-2.552,2.552H441.3A2.552,2.552,0,0,0,438.749,1503.694Z" transform="translate(-378.552 -1433.855)" fill="#d6ae05"/>
          <path id="Path_1223" data-name="Path 1223" d="M438.505,1354.338h-41.89a.317.317,0,1,0,0,.635h41.89a.317.317,0,0,0,0-.635Z" transform="translate(-375.888 -1303.764)" fill="#d86713"/>
        </g>
        <g id="Group_15407" data-name="Group 15407" transform="translate(119.886 265.884)">
          <path id="Path_29942" data-name="Path 29942" d="M204.193,138.792l-96.246-.233c-7.482-.017-13.618,7.067-13.632,15.742l-.321,190.3c-.015,8.677,6.094,15.79,13.577,15.809l96.246.233c7.484.019,13.618-7.067,13.634-15.742l.319-190.3C217.786,145.925,211.677,138.81,204.193,138.792Z" transform="translate(-93.994 -138.559)" fill="#273b60"/>
          <path id="Path_29943" data-name="Path 29943" d="M199.581,146.47l-10.558-.026a2.572,2.572,0,0,0-2.217,1.4l-2.493,4.436c-2.582,4.6-8.179,3.6-12.849,3.589H132.147c-4.67-.012-9.314.862-11.88-3.747l-2.476-4.448a2.576,2.576,0,0,0-2.213-1.414l-10.558-.026a2.922,2.922,0,0,0-2.66,3.128l-.318,193.087a2.927,2.927,0,0,0,2.648,3.14l94.561.232a2.921,2.921,0,0,0,2.66-3.127l.319-193.087A2.926,2.926,0,0,0,199.581,146.47Z" transform="translate(-90.248 -134.986)" fill="#fff"/>
        </g>
        <path id="Path_29954" data-name="Path 29954" d="M2.2,0H75.909a2.2,2.2,0,0,1,2.2,2.2V45.216a2.2,2.2,0,0,1-2.2,2.2H2.2a2.2,2.2,0,0,1-2.2-2.2V2.2A2.2,2.2,0,0,1,2.2,0Z" transform="translate(197.854 320.209) rotate(0.119)" fill="#ffc5ac"/>
        <g id="Group_15411" data-name="Group 15411" transform="translate(230.881 330.156)">
          <path id="Path_29947" data-name="Path 29947" d="M198.656,162.559H162.148a2.482,2.482,0,0,0-2.475,2.475h0a2.482,2.482,0,0,0,2.475,2.475h36.508a2.483,2.483,0,0,0,2.477-2.475h0A2.483,2.483,0,0,0,198.656,162.559Z" transform="translate(-159.673 -162.559)" fill="#f16427"/>
          <path id="Path_29948" data-name="Path 29948" d="M187.243,170.371H168.06a2.482,2.482,0,0,0-2.475,2.475h0a2.482,2.482,0,0,0,2.475,2.475h19.183a2.482,2.482,0,0,0,2.475-2.475h0A2.482,2.482,0,0,0,187.243,170.371Z" transform="translate(-156.922 -158.924)" fill="#f16427"/>
          <path id="Path_29949" data-name="Path 29949" d="M195.125,178.075H163.978a2.482,2.482,0,0,0-2.475,2.475h0a2.482,2.482,0,0,0,2.475,2.475h31.147a2.482,2.482,0,0,0,2.475-2.475h0A2.482,2.482,0,0,0,195.125,178.075Z" transform="translate(-158.821 -155.338)" fill="#f16427"/>
        </g>
        <rect id="Rectangle_18305" data-name="Rectangle 18305" width="94.094" height="57.121" rx="2.998" transform="translate(81.983 362.288) rotate(0.119)" fill="#fee686"/>
        <g id="Group_15413" data-name="Group 15413" transform="translate(126.529 381.14)">
          <path id="Path_29952" data-name="Path 29952" d="M138.873,196.362h-38.7a1.649,1.649,0,0,0-1.644,1.644h0a1.649,1.649,0,0,0,1.644,1.646h38.7a1.65,1.65,0,0,0,1.646-1.646h0A1.649,1.649,0,0,0,138.873,196.362Z" transform="translate(-98.527 -196.362)" fill="#273b60"/>
          <path id="Path_29953" data-name="Path 29953" d="M130.157,201.9H100.171a1.649,1.649,0,0,0-1.644,1.644h0a1.65,1.65,0,0,0,1.644,1.646h29.986a1.652,1.652,0,0,0,1.646-1.646h0A1.65,1.65,0,0,0,130.157,201.9Z" transform="translate(-98.527 -193.785)" fill="#273b60"/>
          <rect id="Rectangle_18306" data-name="Rectangle 18306" width="29.164" height="3.289" rx="1.122" transform="translate(0 15.843)" fill="#273b60"/>
        </g>
        <g id="Group_15344" data-name="Group 15344" transform="translate(90.225 374.287)">
          <path id="Path_29831" data-name="Path 29831" d="M165.794,229.19v19.753l-12.184-3.493V235.385l9.525.546Z" transform="translate(-151.36 -216.104)" fill="#273b60" fill-rule="evenodd"/>
          <path id="Path_29832" data-name="Path 29832" d="M376.093,211.445l-11.433-.7L367.494,218l11.433-.7Z" transform="translate(-349.265 -198.81)" fill="#273b60" fill-rule="evenodd"/>
          <path id="Path_29833" data-name="Path 29833" d="M361.978,229.19l2.659,6.741,9.525-.545v10.064l-12.184,3.493Z" transform="translate(-346.75 -216.104)" fill="#273b60" fill-rule="evenodd"/>
          <path id="Path_29834" data-name="Path 29834" d="M120.325,211.445l-2.833,5.861,11.434.7,2.833-7.256Z" transform="translate(-117.492 -198.81)" fill="#273b60" fill-rule="evenodd"/>
          <path id="Path_29835" data-name="Path 29835" d="M355.18,22.489a3.386,3.386,0,1,1-3.386-3.387A3.39,3.39,0,0,1,355.18,22.489Z" transform="translate(-334.026 -19.102)" fill="#273b60"/>
          <path id="Path_29836" data-name="Path 29836" d="M264.422,44.232a1.833,1.833,0,1,1-1.833-1.834A1.835,1.835,0,0,1,264.422,44.232Z" transform="translate(-251.833 -40.947)" fill="#273b60"/>
          <path id="Path_29837" data-name="Path 29837" d="M415.638,146.906a1.833,1.833,0,1,1-1.833-1.834A1.836,1.836,0,0,1,415.638,146.906Z" transform="translate(-393.63 -137.226)" fill="#273b60"/>
          <path id="Path_29838" data-name="Path 29838" d="M322.009,126.259a1.833,1.833,0,1,1-1.833-1.834A1.835,1.835,0,0,1,322.009,126.259Z" transform="translate(-305.832 -117.865)" fill="#273b60"/>
          <path id="Path_29839" data-name="Path 29839" d="M222.385,133.569a2.351,2.351,0,1,1-2.351-2.351A2.354,2.354,0,0,1,222.385,133.569Z" transform="translate(-211.444 -124.235)" fill="#273b60"/>
        </g>
        <g id="Group_15335" data-name="Group 15335" transform="translate(168.159 449.558)">
          <g id="Group_12218" data-name="Group 12218" transform="translate(0 0)">
            <g transform="matrix(1, 0, 0, 1, -239.66, -271.59)" filter="url(#Path_13197)">
              <g id="Path_13197-2" data-name="Path 13197" transform="translate(239.66 271.59)" fill="#273b60">
                <path d="M 16.24387168884277 29.97983551025391 C 12.43325138092041 29.97983551025391 8.85233211517334 28.52068519592285 6.160751819610596 25.87118530273438 C 3.477651596069336 23.23003578186035 2.000001668930054 19.72079658508301 2.000001668930054 15.98991584777832 C 2.000001668930054 12.25903606414795 3.477651596069336 8.749805450439453 6.160751819610596 6.108645915985107 C 8.85233211517334 3.459145784378052 12.43325138092041 1.999995827674866 16.24387168884277 1.999995827674866 C 20.05449104309082 1.999995827674866 23.63541221618652 3.459145784378052 26.32699203491211 6.108645915985107 C 29.01009178161621 8.749805450439453 30.48774147033691 12.25903606414795 30.48774147033691 15.98991584777832 C 30.48774147033691 19.72079658508301 29.01009178161621 23.23003578186035 26.32699203491211 25.87118530273438 C 23.63541221618652 28.52068519592285 20.05449104309082 29.97983551025391 16.24387168884277 29.97983551025391 Z" stroke="none"/>
                <path d="M 16.24387168884277 3.999996185302734 C 12.96153259277344 3.999996185302734 9.878881454467773 5.255044937133789 7.56378173828125 7.533956527709961 C 5.265642166137695 9.796165466308594 4.000001907348633 12.79921531677246 4.000001907348633 15.98991584777832 C 4.000001907348633 19.18061447143555 5.265642166137695 22.18366622924805 7.56378173828125 24.44587516784668 C 9.878881454467773 26.72478485107422 12.96153259277344 27.97983551025391 16.24387168884277 27.97983551025391 C 19.52621078491211 27.97983551025391 22.60886192321777 26.72478485107422 24.9239616394043 24.44587516784668 C 27.22210121154785 22.18366622924805 28.48774147033691 19.18061447143555 28.48774147033691 15.98991584777832 C 28.48774147033691 12.79921531677246 27.22210121154785 9.796165466308594 24.9239616394043 7.533956527709961 C 22.60886192321777 5.255044937133789 19.52621078491211 3.999996185302734 16.24387168884277 3.999996185302734 M 16.24387168884277 -3.814697265625e-06 C 25.21511077880859 -3.814697265625e-06 32.48774337768555 7.158935546875 32.48774337768555 15.98991584777832 C 32.48774337768555 24.8209056854248 25.21511077880859 31.97983551025391 16.24387168884277 31.97983551025391 C 7.272632598876953 31.97983551025391 0 24.8209056854248 0 15.98991584777832 C 0 7.158935546875 7.272632598876953 -3.814697265625e-06 16.24387168884277 -3.814697265625e-06 Z" stroke="none" fill="#fdce0c"/>
              </g>
            </g>
            <g id="Group_12217" data-name="Group 12217" transform="translate(11.209 11.209)">
              <line id="Line_5" data-name="Line 5" y2="10.077" transform="translate(5.039)" fill="none" stroke="#fff" stroke-linecap="round" stroke-width="3"/>
              <line id="Line_6" data-name="Line 6" y2="10.078" transform="translate(10.078 5.039) rotate(90)" fill="none" stroke="#fff" stroke-linecap="round" stroke-width="3"/>
            </g>
          </g>
        </g>
        <g id="Group_12217-2" data-name="Group 12217" transform="translate(263.497 292.125)">
          <line id="Line_5-2" data-name="Line 5" y2="10.077" transform="translate(5.039)" fill="none" stroke="#f16427" stroke-linecap="round" stroke-width="3"/>
          <line id="Line_6-2" data-name="Line 6" y2="10.078" transform="translate(10.078 5.039) rotate(90)" fill="none" stroke="#f16427" stroke-linecap="round" stroke-width="3"/>
        </g>
        <g id="Group_15724" data-name="Group 15724" transform="translate(100.017 344.404)">
          <line id="Line_5-3" data-name="Line 5" y2="10.077" transform="translate(5.039)" fill="none" stroke="#fdce0c" stroke-linecap="round" stroke-width="3"/>
          <line id="Line_6-3" data-name="Line 6" y2="10.078" transform="translate(10.078 5.039) rotate(90)" fill="none" stroke="#fdce0c" stroke-linecap="round" stroke-width="3"/>
        </g>
        <g id="Group_15414" data-name="Group 15414" transform="translate(95.404 419.604)">
          <path id="Path_29916" data-name="Path 29916" d="M653.551,240.756c.4-24.082-10.357-33.961-10.357-33.961-2.624,13.285,1.57,27.512,3.9,33.961Z" transform="translate(-635.517 -201.693)" fill="#106d0b"/>
          <path id="Path_29917" data-name="Path 29917" d="M660.683,241.464c11.727-15.984,9.836-28.524,9.836-28.524-10.13,8.446-15.369,22.471-17.191,28.262l.3.262Z" transform="translate(-636.781 -202.401)" fill="#106d0b"/>
          <path id="Path_29918" data-name="Path 29918" d="M668.383,242.8c10-10.118,12.059-18.289,12.059-18.289A43.134,43.134,0,0,0,658.886,242.8Z" transform="translate(-637.421 -203.734)" fill="#3c9737"/>
          <path id="Path_29919" data-name="Path 29919" d="M647.79,242.244c-3.827-17.313-13.165-22.539-13.165-22.539.2,8.961,4.292,17.519,7.223,22.539Z" transform="translate(-634.625 -203.181)" fill="#3c9736"/>
          <path id="Path_29920" data-name="Path 29920" d="M659.97,240.091c5.074-28.2-3.033-39.063-3.033-39.063-9.672,9.811-6.006,33.01-4.847,39.063Z" transform="translate(-636.448 -201.028)" fill="#3c9737"/>
          <path id="Path_29921" data-name="Path 29921" d="M658.441,240.874c-.739-10.4-1.244-20.9-1.463-31.3a.222.222,0,0,0-.221-.217h0a.222.222,0,0,0-.217.227c.218,10.388.723,20.884,1.462,31.286Z" transform="translate(-637.151 -201.988)" fill="#d7e9fd"/>
          <path id="Path_29922" data-name="Path 29922" d="M650.387,241.2h.464a107.506,107.506,0,0,1-3-12.477L644.6,212.356a.218.218,0,0,0-.26-.174.221.221,0,0,0-.173.26l3.246,16.367A109.315,109.315,0,0,0,650.387,241.2Z" transform="translate(-635.725 -202.313)" fill="#d7e9fd"/>
          <path id="Path_29923" data-name="Path 29923" d="M644.982,242.69c-2.676-5.7-5.121-11.535-7.272-17.428a.221.221,0,0,0-.415.152c2.132,5.841,4.552,11.626,7.2,17.276Z" transform="translate(-634.931 -203.804)" fill="#d7e9fd"/>
          <path id="Path_29924" data-name="Path 29924" d="M660.1,241.916c.416-.787.812-1.591,1.156-2.414a43.193,43.193,0,0,0,1.593-4.886c.271-.959.55-1.95.866-2.909a72.451,72.451,0,0,1,2.75-6.782c.9-2.018,1.829-4.1,2.566-6.228a.222.222,0,0,0-.418-.146c-.731,2.107-1.656,4.184-2.552,6.193a73.142,73.142,0,0,0-2.766,6.825c-.318.968-.6,1.963-.871,2.927a43.093,43.093,0,0,1-1.576,4.836c-.367.881-.8,1.741-1.249,2.585Z" transform="translate(-637.503 -203.03)" fill="#d7e9fd"/>
          <path id="Path_29925" data-name="Path 29925" d="M661.84,243.049c.857-.96,1.784-1.862,2.7-2.737l12.284-11.7a.222.222,0,0,0-.305-.321l-12.285,11.7c-1.018.971-2.049,1.972-2.985,3.058Z" transform="translate(-637.694 -204.164)" fill="#d7e9fd"/>
          <g id="Group_15388" data-name="Group 15388" transform="translate(4.327 38.012)">
            <path id="Path_29926" data-name="Path 29926" d="M642.81,249.872l2.921,18.083a5.3,5.3,0,0,0,5.226,4.449h8.9a5.3,5.3,0,0,0,5.226-4.449l2.921-18.083Z" transform="translate(-639.896 -244.67)" fill="#fdce0c"/>
            <path id="Path_29927" data-name="Path 29927" d="M668.007,249.872h-25.2l.4,2.506h19.426l-2.517,15.578A5.294,5.294,0,0,1,654.9,272.4h4.962a5.294,5.294,0,0,0,5.226-4.449l2.517-15.578h0Z" transform="translate(-639.896 -244.67)" fill="#d6ae05"/>
            <path id="Path_29928" data-name="Path 29928" d="M667.909,243.992h-25.76a2.641,2.641,0,0,0-2.633,2.633h0a2.641,2.641,0,0,0,2.633,2.633h25.76a2.641,2.641,0,0,0,2.633-2.633h0A2.641,2.641,0,0,0,667.909,243.992Z" transform="translate(-639.516 -243.992)" fill="#fdce0c"/>
          </g>
        </g>
        <g id="Group_15416" data-name="Group 15416" transform="translate(200.647 330.965)">
          <path id="Path_29955" data-name="Path 29955" d="M419.6,103.04a1.815,1.815,0,1,0,1.844,1.815A1.832,1.832,0,0,0,419.6,103.04Zm0,3.169a1.326,1.326,0,1,1,1.354-1.325A1.347,1.347,0,0,1,419.6,106.209Z" transform="translate(-400.734 -99.122)" fill="#f16427"/>
          <path id="Path_29956" data-name="Path 29956" d="M382.171,64.32l-.518-.288v-.144l.49-.2a.206.206,0,0,0,.144-.259,5.475,5.475,0,0,0-.317-1.124.257.257,0,0,0-.23-.144l-.605.029-.086-.115.317-.4a.312.312,0,0,0,0-.317,3.714,3.714,0,0,0-.951-.807.222.222,0,0,0-.288.029l-.432.346-.144-.058v-.547a.251.251,0,0,0-.173-.23,4.044,4.044,0,0,0-1.181-.173.219.219,0,0,0-.23.173l-.2.518h-.144l-.259-.432a.274.274,0,0,0-.288-.115,4.409,4.409,0,0,0-1.066.461.281.281,0,0,0-.115.259l.086.605-.115.086-.432-.259a.263.263,0,0,0-.317.058,3.813,3.813,0,0,0-.663,1.008.229.229,0,0,0,.058.288l.4.375-.029.144-.547.086c-.115.029-.2.086-.2.2a5.192,5.192,0,0,0-.058.634,3.687,3.687,0,0,0,.029.547c.029.115.086.2.2.2l.547.115.058.144-.432.375a.217.217,0,0,0-.058.288,4.389,4.389,0,0,0,.634.979.217.217,0,0,0,.288.058l.547-.23.115.086-.173.576a.2.2,0,0,0,.115.259,4.215,4.215,0,0,0,1.095.518.236.236,0,0,0,.288-.115l.317-.49h.144l.23.605a.251.251,0,0,0,.231.173,3.805,3.805,0,0,0,1.124-.173.251.251,0,0,0,.173-.23l.058-.605.144-.058.432.375a.222.222,0,0,0,.288.029,4.129,4.129,0,0,0,.922-.807.265.265,0,0,0,.029-.288l-.317-.49.058-.144.634.058a.3.3,0,0,0,.259-.144,4.546,4.546,0,0,0,.317-1.066c-.058-.087-.116-.2-.2-.23Zm-.547.951-.634-.058a.3.3,0,0,0-.259.144l-.2.4a.218.218,0,0,0,.029.23l.288.432a4.209,4.209,0,0,1-.547.461l-.4-.375a.265.265,0,0,0-.288-.029l-.4.2c-.086.029-.115.115-.144.2L379,67.46a2.453,2.453,0,0,1-.663.086l-.23-.605a.251.251,0,0,0-.23-.173h-.461a.243.243,0,0,0-.2.115l-.288.432a4.231,4.231,0,0,1-.634-.288l.173-.576a.232.232,0,0,0-.086-.259l-.375-.259a.225.225,0,0,0-.23-.029l-.518.2a2.353,2.353,0,0,1-.346-.576l.4-.346a.217.217,0,0,0,.058-.288l-.173-.432a.213.213,0,0,0-.173-.144h-.461c0-.115-.029-.2-.029-.317a1.647,1.647,0,0,1,.029-.375l.518-.086a.245.245,0,0,0,.2-.2l.086-.432a.193.193,0,0,0-.086-.23l-.375-.346a3.944,3.944,0,0,1,.375-.576l.432.23a.265.265,0,0,0,.288-.029l.346-.288a.327.327,0,0,0,.086-.23l-.086-.576a4.254,4.254,0,0,1,.634-.288l.23.375a.217.217,0,0,0,.2.115h.461a.219.219,0,0,0,.23-.173l.2-.518a5.68,5.68,0,0,1,.691.086v.518a.219.219,0,0,0,.173.23l.432.144a.307.307,0,0,0,.231-.029l.375-.317a4.211,4.211,0,0,1,.547.461l-.288.375a.261.261,0,0,0,0,.288l.259.375a.366.366,0,0,0,.2.115l.576-.029a5.4,5.4,0,0,1,.2.634l-.461.2a.216.216,0,0,0-.144.23l.029.461a.243.243,0,0,0,.115.2l.49.288a2.271,2.271,0,0,1-.115.662Z" transform="translate(-359.297 -58.212)" fill="#f16427"/>
          <path id="Path_29957" data-name="Path 29957" d="M105.525,360.863c0-.086-.576-6.943-9.363-6.943-8.9,0-9.334,6.943-9.363,7v2.017a1.033,1.033,0,0,0,1.037,1.037h16.622a1.033,1.033,0,0,0,1.037-1.037Z" transform="translate(-86.8 -337.096)" fill="#f16427"/>
          <path id="Path_29958" data-name="Path 29958" d="M294.439,26.879h-5.762A5.931,5.931,0,0,0,282.8,31.92a6.6,6.6,0,0,1,.807.23,5.133,5.133,0,0,1,5.1-4.436h5.762a5.042,5.042,0,1,1,0,10.083H292.71l-3.313,2.42V37.8h-.663a4.34,4.34,0,0,1-1.383-.2v.173c0,.23-.029.461-.029.691a6.11,6.11,0,0,0,1.268.173v3.255l4.436-3.255h1.5a5.9,5.9,0,0,0,5.935-5.877,6.027,6.027,0,0,0-6.021-5.877Z" transform="translate(-272.717 -26.879)" fill="#f16427"/>
          <path id="Path_29959" data-name="Path 29959" d="M178.8,150.142a5.09,5.09,0,1,0-4.638-5.07A4.871,4.871,0,0,0,178.8,150.142Z" transform="translate(-169.666 -134.183)" fill="#f16427"/>
        </g>
      </g>
    </g>
  </g>
</svg>
