<svg xmlns="http://www.w3.org/2000/svg" xmlns:xlink="http://www.w3.org/1999/xlink" width="518" height="517" viewBox="0 0 518 517">
  <defs>
    <filter id="Rectangle_18503" x="0" y="0" width="518" height="517" filterUnits="userSpaceOnUse">
      <feOffset dy="19" input="SourceAlpha"/>
      <feGaussianBlur stdDeviation="25" result="blur"/>
      <feFlood flood-opacity="0.102"/>
      <feComposite operator="in" in2="blur"/>
      <feComposite in="SourceGraphic"/>
    </filter>
  </defs>
  <g id="Component_9_4" data-name="Component 9 – 4" transform="translate(75 56)">
    <g transform="matrix(1, 0, 0, 1, -75, -56)" filter="url(#Rectangle_18503)">
      <rect id="Rectangle_18503-2" data-name="Rectangle 18503" width="368" height="367" rx="19" transform="translate(75 56)" fill="#fff"/>
    </g>
    <g id="Group_16567" data-name="Group 16567" transform="translate(-3.5 -226.984)">
      <text id="Sell_your_product" data-name="Sell your product" transform="translate(73.5 549)" fill="#273b60" font-size="25" font-family="SegoeUI-Bold, Segoe UI" font-weight="700"><tspan x="0" y="0">Sell your product</tspan></text>
      <g id="Group_16245" data-name="Group 16245">
        <path id="Path_2919" data-name="Path 2919" d="M303.952,236.029s74.4-10.316,84.257,39.6c5.218,26.414,43.6,7.327,65.5,16.494,15.592,6.526,7.535,28.634,16.9,34.4,46.16,28.413,34.149,152.675,25.187,152.657l-307.814-.507s-24.9-37.255-2.359-59.011,7.063-31.7,4.324-40.111c-3.145-9.654-14.406-37.216,17.674-49.283,16.47-6.195,21.586-23.343,22.834-34.79,2.132-19.56,13.077-36.969,29.688-46.475C270.663,242.982,284.85,238.04,303.952,236.029Z" transform="translate(-152.686 24.821)" fill="#dee5eb" opacity="0.51"/>
        <g id="Group_16233" data-name="Group 16233" transform="translate(-462.402 -53.021)">
          <g id="Group_16227" data-name="Group 16227" transform="translate(739.084 332.061)">
            <path id="Path_30192" data-name="Path 30192" d="M1364.878,337.853l-1.221,9.2,6.537-4.774,20.007-10.221-15.476,1.417s-7.884,1.915-8.31,2.3A19.2,19.2,0,0,0,1364.878,337.853Z" transform="translate(-1358.026 -332.061)"/>
            <path id="Path_30193" data-name="Path 30193" d="M1324.462,332.3l32.176-.235-25.323,5.792Z" transform="translate(-1324.462 -332.061)" fill="#273b60"/>
          </g>
          <path id="Path_30194" data-name="Path 30194" d="M1393.9,347.112l-8.431-6.772,23.411-8.278Z" transform="translate(-637.621 0)" fill="#273b60"/>
          <g id="Group_16232" data-name="Group 16232" transform="translate(640.868 341.735)">
            <g id="Group_16231" data-name="Group 16231" transform="translate(0 0)">
              <g id="Group_16228" data-name="Group 16228" transform="translate(0 68.008)">
                <path id="Path_30195" data-name="Path 30195" d="M643.446,873.768a6.58,6.58,0,0,1-2.578-.519l.238-.51a6.033,6.033,0,0,0,2.356.466Z" transform="translate(-640.868 -872.74)" fill="#f16427"/>
              </g>
              <g id="Group_16229" data-name="Group 16229" transform="translate(7.614 1.77)">
                <path id="Path_30196" data-name="Path 30196" d="M693.989,478.316l-.13-.548a49.217,49.217,0,0,0,4.91-1.47l.187.531A49.813,49.813,0,0,1,693.989,478.316Zm9.785-3.38-.223-.517c1.65-.712,3.257-1.471,4.646-2.193l.26.5C707.055,473.455,705.436,474.219,703.774,474.936Zm8.973-5.178-.4-.4a18.676,18.676,0,0,0,3.029-4.055l.492.273A19.245,19.245,0,0,1,712.746,469.758Zm10.672-2.076a17.16,17.16,0,0,1-5.182-.624l.153-.542a16.6,16.6,0,0,0,5.012.6Zm5.138-.9-.174-.535a17.438,17.438,0,0,0,4.532-2.237l.32.463A18,18,0,0,1,728.557,466.783Zm-15.035-1.976a14.927,14.927,0,0,1-3.694-3.7l.464-.319a14.36,14.36,0,0,0,3.554,3.556Zm23.5-3.919-.441-.35a32.674,32.674,0,0,0,2.8-4.268l.489.278A33.271,33.271,0,0,1,737.023,460.888Zm-19.242-.155-.546-.136a18.513,18.513,0,0,0,.551-5.03l.563-.017A19.086,19.086,0,0,1,717.781,460.733Zm-9.935-4.467c-.051-.324-.089-.653-.11-.978q-.008-.126-.014-.252a8.435,8.435,0,0,1,.74-3.978l.508.243a7.875,7.875,0,0,0-.685,3.712q0,.119.013.239c.02.308.055.62.1.927Zm34.5-4.245-.5-.267.7-1.3q.872-1.619,1.75-3.239l.494.269q-.879,1.618-1.749,3.237Zm-25.73-1.283a4.249,4.249,0,0,0-2.634-2.179,3.605,3.605,0,0,0-1.3-.079l-.065-.559a4.174,4.174,0,0,1,1.5.093,4.852,4.852,0,0,1,2.985,2.445Zm30.671-7.757-.49-.277c.922-1.629,1.776-3.087,2.609-4.455l.481.293C749.059,439.9,748.209,441.357,747.289,442.981Zm5.369-8.77-.466-.315c1-1.483,2.017-2.9,3.02-4.2l.446.343C754.662,431.335,753.653,432.738,752.658,434.211Zm6.283-8.108-.417-.378c1.183-1.307,2.41-2.544,3.647-3.675l.38.415C761.327,423.585,760.113,424.808,758.942,426.1Zm7.565-6.889-.333-.453a48.1,48.1,0,0,1,4.336-2.837l.282.487A47.624,47.624,0,0,0,766.507,419.214Zm8.846-5.133-.229-.514a48.742,48.742,0,0,1,4.839-1.851l.173.536A48.087,48.087,0,0,0,775.353,414.081Z" transform="translate(-693.859 -411.716)" fill="#f16427"/>
              </g>
              <g id="Group_16230" data-name="Group 16230" transform="translate(98.738)">
                <path id="Path_30197" data-name="Path 30197" d="M1328.208,400.393l-.114-.551c.83-.171,1.673-.322,2.507-.447l.084.556C1329.861,400.075,1329.028,400.224,1328.208,400.393Z" transform="translate(-1328.094 -399.395)" fill="#f16427"/>
              </g>
            </g>
          </g>
        </g>
        <ellipse id="Ellipse_803" data-name="Ellipse 803" cx="109.694" cy="18.765" rx="109.694" ry="18.765" transform="translate(78 460.586)" fill="#273b60" opacity="0.13"/>
        <g id="Group_15407" data-name="Group 15407" transform="translate(119.886 265.884)">
          <path id="Path_29942" data-name="Path 29942" d="M204.193,138.792l-96.246-.233c-7.482-.017-13.618,7.067-13.632,15.742l-.321,190.3c-.015,8.677,6.094,15.79,13.577,15.809l96.246.233c7.484.019,13.618-7.067,13.634-15.742l.319-190.3C217.786,145.925,211.677,138.81,204.193,138.792Z" transform="translate(-93.994 -138.559)" fill="#273b60"/>
          <path id="Path_29943" data-name="Path 29943" d="M199.581,146.47l-10.558-.026a2.572,2.572,0,0,0-2.217,1.4l-2.493,4.436c-2.582,4.6-8.179,3.6-12.849,3.589H132.147c-4.67-.012-9.314.862-11.88-3.747l-2.476-4.448a2.576,2.576,0,0,0-2.213-1.414l-10.558-.026a2.922,2.922,0,0,0-2.66,3.128l-.318,193.087a2.927,2.927,0,0,0,2.648,3.14l94.561.232a2.921,2.921,0,0,0,2.66-3.127l.319-193.087A2.926,2.926,0,0,0,199.581,146.47Z" transform="translate(-90.248 -134.986)" fill="#fff"/>
        </g>
        <g id="Group_15537" data-name="Group 15537" transform="translate(252.537 242.575)">
          <g id="Group_15442" data-name="Group 15442" transform="translate(-185.13 242.972)">
            <g id="Group_15439" data-name="Group 15439" transform="translate(0 0)">
              <g id="Group_15421" data-name="Group 15421">
                <g id="Group_15420" data-name="Group 15420">
                  <g id="Group_15419" data-name="Group 15419">
                    <g id="Group_15418" data-name="Group 15418">
                      <g id="Group_15417" data-name="Group 15417">
                        <path id="Path_29961" data-name="Path 29961" d="M-156.123,459.191l-1.735,12.915-6.986-.8,1.712-12.943Z" transform="translate(164.845 -458.366)" fill="#162d40"/>
                      </g>
                    </g>
                  </g>
                </g>
              </g>
              <g id="Group_15427" data-name="Group 15427" transform="translate(3.594 0.253)">
                <g id="Group_15426" data-name="Group 15426">
                  <g id="Group_15425" data-name="Group 15425">
                    <g id="Group_15424" data-name="Group 15424">
                      <g id="Group_15423" data-name="Group 15423">
                        <g id="Group_15422" data-name="Group 15422">
                          <path id="Path_29962" data-name="Path 29962" d="M-155.56,471.625c-.058-.009.31-2.838.822-6.318s.974-6.3,1.032-6.288-.31,2.837-.822,6.319S-155.5,471.634-155.56,471.625Z" transform="translate(155.566 -459.019)" fill="#f8f8f8"/>
                        </g>
                      </g>
                    </g>
                  </g>
                </g>
              </g>
              <g id="Group_15432" data-name="Group 15432" transform="translate(0 12.03)">
                <g id="Group_15431" data-name="Group 15431">
                  <g id="Group_15430" data-name="Group 15430">
                    <g id="Group_15429" data-name="Group 15429">
                      <g id="Group_15428" data-name="Group 15428">
                        <path id="Path_29963" data-name="Path 29963" d="M-157.739,490.241l-6.985-.82-.121.914,6.986.8Z" transform="translate(164.845 -489.421)" fill="#263238"/>
                      </g>
                    </g>
                  </g>
                </g>
              </g>
              <g id="Group_15438" data-name="Group 15438" transform="translate(0.546 7.185)">
                <g id="Group_15437" data-name="Group 15437">
                  <g id="Group_15436" data-name="Group 15436">
                    <g id="Group_15435" data-name="Group 15435">
                      <g id="Group_15434" data-name="Group 15434">
                        <g id="Group_15433" data-name="Group 15433">
                          <path id="Path_29964" data-name="Path 29964" d="M-163.433,478.536c-.01-.009.064-.1.217-.257a4.847,4.847,0,0,1,.713-.578,4.768,4.768,0,0,1,1.229-.6,3.707,3.707,0,0,1,1.675-.151,3.723,3.723,0,0,1,2.552,1.556,3.22,3.22,0,0,1,.4.828.916.916,0,0,1,.067.33,7.352,7.352,0,0,0-.595-1.071,3.744,3.744,0,0,0-2.462-1.433,4.3,4.3,0,0,0-2.792.666C-163.071,478.222-163.408,478.564-163.433,478.536Z" transform="translate(163.434 -476.914)" fill="#f8f8f8"/>
                        </g>
                      </g>
                    </g>
                  </g>
                </g>
              </g>
            </g>
            <g id="Group_15441" data-name="Group 15441" transform="translate(0.846 5.401)" opacity="0.3">
              <g id="Group_15440" data-name="Group 15440">
                <path id="Path_29965" data-name="Path 29965" d="M-155.434,472.955l-.207,1.144-7.021-.642.152-1.149Z" transform="translate(162.662 -472.308)"/>
              </g>
            </g>
          </g>
          <g id="Group_15468" data-name="Group 15468" transform="translate(-161.861 244.326)">
            <g id="Group_15465" data-name="Group 15465" transform="translate(0)">
              <g id="Group_15447" data-name="Group 15447" transform="translate(0 0.018)">
                <g id="Group_15446" data-name="Group 15446">
                  <g id="Group_15445" data-name="Group 15445">
                    <g id="Group_15444" data-name="Group 15444">
                      <g id="Group_15443" data-name="Group 15443">
                        <path id="Path_29966" data-name="Path 29966" d="M-96.951,462.226l-.8,13.006-7.026-.29.773-13.033Z" transform="translate(104.774 -461.909)" fill="#162d40"/>
                      </g>
                    </g>
                  </g>
                </g>
              </g>
              <g id="Group_15453" data-name="Group 15453" transform="translate(3.573)">
                <g id="Group_15452" data-name="Group 15452">
                  <g id="Group_15451" data-name="Group 15451">
                    <g id="Group_15450" data-name="Group 15450">
                      <g id="Group_15449" data-name="Group 15449">
                        <g id="Group_15448" data-name="Group 15448">
                          <path id="Path_29967" data-name="Path 29967" d="M-95.538,474.569c-.058,0,.1-2.853.364-6.361s.517-6.35.576-6.346-.1,2.852-.364,6.362S-95.479,474.574-95.538,474.569Z" transform="translate(95.55 -461.862)" fill="#f8f8f8"/>
                        </g>
                      </g>
                    </g>
                  </g>
                </g>
              </g>
              <g id="Group_15458" data-name="Group 15458" transform="translate(0 12.131)">
                <g id="Group_15457" data-name="Group 15457">
                  <g id="Group_15456" data-name="Group 15456">
                    <g id="Group_15455" data-name="Group 15455">
                      <g id="Group_15454" data-name="Group 15454">
                        <path id="Path_29968" data-name="Path 29968" d="M-97.694,493.493l-7.026-.313-.055.92,7.026.29Z" transform="translate(104.774 -493.179)" fill="#263238"/>
                      </g>
                    </g>
                  </g>
                </g>
              </g>
              <g id="Group_15464" data-name="Group 15464" transform="translate(0.246 7.019)">
                <g id="Group_15463" data-name="Group 15463">
                  <g id="Group_15462" data-name="Group 15462">
                    <g id="Group_15461" data-name="Group 15461">
                      <g id="Group_15460" data-name="Group 15460">
                        <g id="Group_15459" data-name="Group 15459">
                          <path id="Path_29969" data-name="Path 29969" d="M-104.139,481.849c-.01-.009.057-.108.2-.272a4.882,4.882,0,0,1,.669-.628,4.764,4.764,0,0,1,1.183-.686,3.706,3.706,0,0,1,1.659-.272,3.722,3.722,0,0,1,2.658,1.367,3.221,3.221,0,0,1,.464.8.921.921,0,0,1,.091.325,7.37,7.37,0,0,0-.671-1.026,3.744,3.744,0,0,0-2.559-1.252,4.305,4.305,0,0,0-2.736.866C-103.8,481.509-104.111,481.875-104.139,481.849Z" transform="translate(104.14 -479.982)" fill="#f8f8f8"/>
                        </g>
                      </g>
                    </g>
                  </g>
                </g>
              </g>
            </g>
            <g id="Group_15467" data-name="Group 15467" transform="translate(0.382 5.456)" opacity="0.3">
              <g id="Group_15466" data-name="Group 15466">
                <path id="Path_29970" data-name="Path 29970" d="M-96.616,476.082l-.124,1.156-7.049-.133.069-1.157Z" transform="translate(103.789 -475.948)"/>
              </g>
            </g>
          </g>
          <g id="Group_15483" data-name="Group 15483" transform="translate(-184.821 174.519)">
            <g id="Group_15470" data-name="Group 15470" transform="translate(0 0)">
              <g id="Group_15469" data-name="Group 15469">
                <path id="Path_29971" data-name="Path 29971" d="M-159.545,291.054a79.374,79.374,0,0,0-.671,11.413c.166,2.831.322,24.813.322,24.813a3.389,3.389,0,0,0-1.488,2.332c0,1.332-2.664,25.645-2.664,25.645l8.02,1.332s7.3-26.478,7.467-30.142,5.329-28.809,5.329-28.809,1.665,23.814,1.665,27.477-.071,31.859-.071,31.859,5.939.838,8.794.159c0,0,2.434-21.193,2.434-28.188V317.621s2.831-13.156,4.163-19.817a36.463,36.463,0,0,0,0-13.013l-23.98-3.14Z" transform="translate(164.047 -281.651)" fill="#273b60"/>
              </g>
            </g>
            <g id="Group_15473" data-name="Group 15473" transform="translate(4.65 47.004)">
              <g id="Group_15472" data-name="Group 15472">
                <g id="Group_15471" data-name="Group 15471">
                  <path id="Path_29972" data-name="Path 29972" d="M-146.04,403.522a9.989,9.989,0,0,0-3.051-.3,9.983,9.983,0,0,0-2.95.837,2.7,2.7,0,0,1,.787-.473,6.609,6.609,0,0,1,2.146-.564,6.619,6.619,0,0,1,2.211.175A2.72,2.72,0,0,1-146.04,403.522Z" transform="translate(152.042 -402.995)" fill="#455a64"/>
                </g>
              </g>
            </g>
            <g id="Group_15476" data-name="Group 15476" transform="translate(6.622 45.291)">
              <g id="Group_15475" data-name="Group 15475">
                <g id="Group_15474" data-name="Group 15474">
                  <path id="Path_29973" data-name="Path 29973" d="M-142.426,398.778a12.792,12.792,0,0,1-2.267.023,12.772,12.772,0,0,1-2.26-.179,12.8,12.8,0,0,1,2.267-.023A12.814,12.814,0,0,1-142.426,398.778Z" transform="translate(146.953 -398.572)" fill="#455a64"/>
                </g>
              </g>
            </g>
            <g id="Group_15479" data-name="Group 15479" transform="translate(24.808 43.451)">
              <g id="Group_15478" data-name="Group 15478">
                <g id="Group_15477" data-name="Group 15477">
                  <path id="Path_29974" data-name="Path 29974" d="M-97.257,400.835c-.01.01-.093-.06-.236-.195a6.112,6.112,0,0,1-.561-.616,8.887,8.887,0,0,1-1.365-2.382,8.887,8.887,0,0,1-.573-2.686,6.085,6.085,0,0,1,.007-.832.893.893,0,0,1,.046-.3c.034,0,.021.434.089,1.125a10.368,10.368,0,0,0,.619,2.624,10.352,10.352,0,0,0,1.29,2.367C-97.531,400.5-97.233,400.811-97.257,400.835Z" transform="translate(100.003 -393.822)" fill="#455a64"/>
                </g>
              </g>
            </g>
            <g id="Group_15482" data-name="Group 15482" transform="translate(12.372 15.02)">
              <g id="Group_15481" data-name="Group 15481">
                <g id="Group_15480" data-name="Group 15480">
                  <path id="Path_29975" data-name="Path 29975" d="M-123.395,320.426a1.327,1.327,0,0,1-.2.317c-.083.089-.189.192-.313.313s-.287.232-.463.357a10.315,10.315,0,0,1-3.076,1.355,8.2,8.2,0,0,1-3.347.279c-.107-.018-.21-.03-.305-.051l-.266-.078a1.783,1.783,0,0,1-.413-.154,1.324,1.324,0,0,1-.326-.186,7.5,7.5,0,0,0,1.329.328,8.892,8.892,0,0,0,3.276-.332,11.562,11.562,0,0,0,3.05-1.279c.177-.115.332-.227.469-.325l.328-.28A1.353,1.353,0,0,1-123.395,320.426Z" transform="translate(132.109 -320.426)" fill="#455a64"/>
                </g>
              </g>
            </g>
          </g>
          <g id="Group_15485" data-name="Group 15485" transform="translate(-134.639 112.839)">
            <g id="Group_15484" data-name="Group 15484" transform="translate(0 0)">
              <path id="Path_29976" data-name="Path 29976" d="M-34.5,132.491a7.694,7.694,0,0,1,.749-3.314,28.648,28.648,0,0,1,3.229-4.325s3.344-2.595,3.691-2.422.461.576,0,.98-2.249,2.48-2.249,2.48.75.289.75.808a1.374,1.374,0,0,1-.173.759s.692.336.865.74a2.109,2.109,0,0,1,.173.75.6.6,0,0,1,.461.577,3.107,3.107,0,0,1-.058.98,8.644,8.644,0,0,1-1.788,1.615c-.519.173-1.211.373-1.211.373l-.453.607v1.663Z" transform="translate(34.497 -122.422)" fill="#ffbe9d"/>
            </g>
          </g>
          <g id="Group_15518" data-name="Group 15518" transform="translate(-197.957 122.808)">
            <g id="Group_15487" data-name="Group 15487" transform="translate(0 12.903)">
              <g id="Group_15486" data-name="Group 15486">
                <path id="Path_29977" data-name="Path 29977" d="M-185.817,181.465s-12.091,21.338-12.14,24.687c-.088,5.952,16.809,10.752,16.809,10.752l2.382-6.794-8.613-5.967,6.266-13.606Z" transform="translate(197.957 -181.465)" fill="#455a64"/>
              </g>
            </g>
            <g id="Group_15489" data-name="Group 15489" transform="translate(12.092 7.286)">
              <g id="Group_15488" data-name="Group 15488">
                <path id="Path_29978" data-name="Path 29978" d="M-166.692,172.582a11.085,11.085,0,0,1,5.432-2.234c3.29-.4,9.173-.5,9.173-.5s15.953-3.49,17.15-2.792,2.792,4.985,3.091,6.98-1.352,20.98-1.352,20.98,7.136,22.093,6.637,22.791c-.242.338-8.861,3.371-17.566,4.041l-.483-6.459-1.029,6.014c-8.091.605-17.276.9-17.276.9s6.3-21.9,6.1-22.495S-167.538,174.716-166.692,172.582Z" transform="translate(166.741 -166.965)" fill="#fdce0c"/>
              </g>
            </g>
            <g id="Group_15491" data-name="Group 15491" transform="translate(43.895)">
              <g id="Group_15490" data-name="Group 15490">
                <path id="Path_29979" data-name="Path 29979" d="M-84.64,155.534s5.863,3.309,6.555,3.232,1.384-1.23,2.306-.308l5.151-.923,5.152-9.38a16.481,16.481,0,0,1,5.151,3.152s-2.845,9.764-4.613,11.225a29.934,29.934,0,0,1-18.048,6.631l-1.173-7.784Z" transform="translate(84.64 -148.156)" fill="#455a64"/>
              </g>
            </g>
            <g id="Group_15494" data-name="Group 15494" transform="translate(50.019 10.375)">
              <g id="Group_15493" data-name="Group 15493">
                <g id="Group_15492" data-name="Group 15492">
                  <path id="Path_29980" data-name="Path 29980" d="M-68.827,183.4c-.031-.021.252-.432.579-1.158a9.08,9.08,0,0,0,.468-1.314,9.857,9.857,0,0,0,.289-1.681,9.892,9.892,0,0,0-.034-1.705,9.062,9.062,0,0,0-.267-1.37c-.215-.767-.434-1.216-.4-1.231a1.184,1.184,0,0,1,.178.3,5.925,5.925,0,0,1,.358.888,7.936,7.936,0,0,1,.315,1.388,9.085,9.085,0,0,1,.051,1.743,9.067,9.067,0,0,1-.311,1.716,7.936,7.936,0,0,1-.518,1.325,5.929,5.929,0,0,1-.487.824C-68.737,183.31-68.815,183.407-68.827,183.4Z" transform="translate(68.829 -174.939)" fill="#263238"/>
                </g>
              </g>
            </g>
            <g id="Group_15497" data-name="Group 15497" transform="translate(57.803 9.391)">
              <g id="Group_15496" data-name="Group 15496" transform="translate(0)">
                <g id="Group_15495" data-name="Group 15495">
                  <path id="Path_29981" data-name="Path 29981" d="M-46.5,174.4a3.619,3.619,0,0,1-1.262-.835,3.606,3.606,0,0,1-.968-1.164,13.712,13.712,0,0,1,1.1,1.014A13.742,13.742,0,0,1-46.5,174.4Z" transform="translate(48.736 -172.4)" fill="#263238"/>
                </g>
              </g>
            </g>
            <g id="Group_15499" data-name="Group 15499" transform="translate(16.953 41.21)">
              <g id="Group_15498" data-name="Group 15498">
                <path id="Path_29982" data-name="Path 29982" d="M-154.191,261.261s.241.874,1.63-.107a7.029,7.029,0,0,0,2.934-1.346c1-.959,1.161-1.543,1.862-1.591s2.717-.332,2.752-.313.551-1.141-.079-1.339a18.489,18.489,0,0,0-3.432.062l-.819.049-.138-1.119.159-1.014s-1.714.652-1.686,1.12c0,0-1.218-.354-1.381.455Z" transform="translate(154.191 -254.543)" fill="#ffbe9d"/>
              </g>
            </g>
            <g id="Group_15502" data-name="Group 15502" transform="translate(13.919 18.784)">
              <g id="Group_15501" data-name="Group 15501">
                <g id="Group_15500" data-name="Group 15500">
                  <path id="Path_29983" data-name="Path 29983" d="M-158.033,207.758a2.082,2.082,0,0,1-.221-.411c-.131-.269-.309-.664-.523-1.154-.427-.98-.983-2.351-1.535-3.888s-.994-2.949-1.288-3.977c-.147-.514-.26-.932-.33-1.223a2.09,2.09,0,0,1-.091-.457,2.057,2.057,0,0,1,.166.435l.391,1.2c.328,1.016.791,2.417,1.341,3.951s1.084,2.908,1.477,3.9l.464,1.178A2.078,2.078,0,0,1-158.033,207.758Z" transform="translate(162.023 -196.648)" fill="#263238"/>
                </g>
              </g>
            </g>
            <g id="Group_15505" data-name="Group 15505" transform="translate(26.764 40.997)">
              <g id="Group_15504" data-name="Group 15504">
                <g id="Group_15503" data-name="Group 15503">
                  <path id="Path_29984" data-name="Path 29984" d="M-118,253.993a2.962,2.962,0,0,1-.282.488c-.19.309-.49.74-.882,1.257a22.455,22.455,0,0,1-3.518,3.641,22.414,22.414,0,0,1-4.25,2.753c-.582.286-1.063.5-1.4.625a2.974,2.974,0,0,1-.533.183,3.041,3.041,0,0,1,.5-.255c.329-.149.8-.379,1.369-.68a25.228,25.228,0,0,0,4.186-2.782,25.207,25.207,0,0,0,3.534-3.574c.4-.5.721-.918.93-1.213A3.06,3.06,0,0,1-118,253.993Z" transform="translate(128.864 -253.992)" fill="#263238"/>
                </g>
              </g>
            </g>
            <g id="Group_15508" data-name="Group 15508" transform="translate(7.193 35.553)">
              <g id="Group_15507" data-name="Group 15507">
                <g id="Group_15506" data-name="Group 15506">
                  <path id="Path_29985" data-name="Path 29985" d="M-175.475,239.95c.01.059-.912.24-1.989.648s-1.892.873-1.924.822a5.711,5.711,0,0,1,1.853-1.011A5.7,5.7,0,0,1-175.475,239.95Z" transform="translate(179.388 -239.938)" fill="#263238"/>
                </g>
              </g>
            </g>
            <g id="Group_15511" data-name="Group 15511" transform="translate(12.897 16.769)" opacity="0.3">
              <g id="Group_15510" data-name="Group 15510">
                <g id="Group_15509" data-name="Group 15509">
                  <path id="Path_29986" data-name="Path 29986" d="M-161.844,199.181a5.173,5.173,0,0,1-2.746-3.509c-.269-1.391.289-2.825.485-4.228a61.209,61.209,0,0,0,2.261,7.736" transform="translate(164.661 -191.445)"/>
                </g>
              </g>
            </g>
            <g id="Group_15514" data-name="Group 15514" transform="translate(27.973 45.09)" opacity="0.3">
              <g id="Group_15513" data-name="Group 15513">
                <g id="Group_15512" data-name="Group 15512">
                  <path id="Path_29987" data-name="Path 29987" d="M-125.743,270.663a8.1,8.1,0,0,0,6.617-.662,8.1,8.1,0,0,0,3.822-5.442A76.721,76.721,0,0,1-125.743,270.663Z" transform="translate(125.743 -264.559)"/>
                </g>
              </g>
            </g>
            <g id="Group_15517" data-name="Group 15517" transform="translate(46.512 11.802)">
              <g id="Group_15516" data-name="Group 15516" transform="translate(0)">
                <g id="Group_15515" data-name="Group 15515">
                  <path id="Path_29988" data-name="Path 29988" d="M-77.631,178.624a1.706,1.706,0,0,1,.1.414c.056.269.12.661.184,1.148a25.653,25.653,0,0,1,.2,3.83,25.607,25.607,0,0,1-.375,3.817c-.086.483-.168.872-.236,1.138a1.746,1.746,0,0,1-.123.409c-.031-.007.083-.6.218-1.569a33.2,33.2,0,0,0,.314-3.8,33.258,33.258,0,0,0-.139-3.809C-77.576,179.229-77.663,178.629-77.631,178.624Z" transform="translate(77.884 -178.624)" fill="#263238"/>
                </g>
              </g>
            </g>
          </g>
          <g id="Group_15536" data-name="Group 15536" transform="translate(-180.632 106.78)">
            <g id="Group_15521" data-name="Group 15521" transform="translate(4.113 21.053)" opacity="0.3">
              <g id="Group_15520" data-name="Group 15520">
                <g id="Group_15519" data-name="Group 15519">
                  <path id="Path_29989" data-name="Path 29989" d="M-124.013,161.131l-18.6,28.66c4.54,2.279,10.267,3.415,14.557.693,1.191,1.466,3.74.935,4.9-.56s1.287-3.519,1.3-5.408C-121.79,176.68-122.9,168.888-124.013,161.131Z" transform="translate(142.615 -161.131)"/>
                </g>
              </g>
            </g>
            <g id="Group_15523" data-name="Group 15523" transform="translate(0 0)">
              <g id="Group_15522" data-name="Group 15522">
                <path id="Path_29990" data-name="Path 29990" d="M-138,107.536a6.818,6.818,0,0,0-5.549,1.91,14.453,14.453,0,0,0-3.283,5.057,67.37,67.37,0,0,0-3.356,11.335,103.585,103.585,0,0,0-3,17.164c-.353,5.8,1.384,9.232,3.888,14.481l8.853-1.226-.016-1.678,1.2,1.678,3.436-.533s1.031-8.987,1.031-8.96,1.639,8.56,1.639,8.56l2.864-.265c2.849-11.293-.374-18.725,1.246-30.259a57.926,57.926,0,0,0,.984-8.243,11.107,11.107,0,0,0-2.636-7.671c-1.91-2.006-5.207-2.827-7.553-1.353" transform="translate(153.232 -106.78)" fill="#263238"/>
              </g>
            </g>
            <g id="Group_15526" data-name="Group 15526" transform="translate(15.388 0.425)">
              <g id="Group_15525" data-name="Group 15525">
                <g id="Group_15524" data-name="Group 15524">
                  <path id="Path_29991" data-name="Path 29991" d="M-111.492,156.4a.631.631,0,0,1-.032-.129l-.074-.382-.263-1.475c-.218-1.282-.518-3.141-.791-5.453a59.99,59.99,0,0,1-.447-8.161,45.263,45.263,0,0,1,.36-4.818A40.4,40.4,0,0,1-111.7,130.9c.979-3.422,2.345-6.534,3.009-9.532a19.049,19.049,0,0,0,.524-4.3,11.931,11.931,0,0,0-.566-3.72,10.071,10.071,0,0,0-1.412-2.765,8.443,8.443,0,0,0-1.635-1.685,7.666,7.666,0,0,0-1.262-.79l-.354-.162a.629.629,0,0,1-.118-.062.666.666,0,0,1,.126.043l.363.144a7.086,7.086,0,0,1,1.291.764,8.343,8.343,0,0,1,1.678,1.68,10.09,10.09,0,0,1,1.457,2.787,12.007,12.007,0,0,1,.6,3.764,19.068,19.068,0,0,1-.51,4.346c-.66,3.023-2.024,6.143-3,9.545A40.7,40.7,0,0,0-112.543,136a45.825,45.825,0,0,0-.37,4.8,61.852,61.852,0,0,0,.4,8.141c.254,2.309.533,4.17.727,5.456l.225,1.48c.022.161.041.289.054.386A.656.656,0,0,1-111.492,156.4Z" transform="translate(113.508 -107.877)" fill="#455a64"/>
                </g>
              </g>
            </g>
            <g id="Group_15529" data-name="Group 15529" transform="translate(4.478 2.369)">
              <g id="Group_15528" data-name="Group 15528">
                <g id="Group_15527" data-name="Group 15527">
                  <path id="Path_29992" data-name="Path 29992" d="M-141.2,153.59a.442.442,0,0,1-.02-.107c-.01-.083-.023-.187-.038-.316-.031-.294-.073-.7-.127-1.219l-.087-.882c-.026-.323-.042-.674-.065-1.052-.039-.755-.109-1.615-.111-2.567q-.013-.715-.026-1.494c-.007-.52.017-1.06.025-1.62.005-1.12.091-2.314.164-3.571a76.191,76.191,0,0,1,1.073-8.119,76.164,76.164,0,0,1,2.018-7.939c.4-1.195.762-2.335,1.173-3.377.2-.523.379-1.033.578-1.513l.579-1.378c.356-.884.74-1.656,1.056-2.342.162-.342.307-.662.451-.952l.408-.786.571-1.085.153-.28a.447.447,0,0,1,.059-.092.471.471,0,0,1-.04.1l-.135.289-.537,1.1-.392.793-.435.958c-.306.69-.68,1.465-1.026,2.35l-.566,1.38c-.2.48-.37.991-.566,1.514-.4,1.042-.76,2.182-1.153,3.375a78.9,78.9,0,0,0-2,7.922,78.931,78.931,0,0,0-1.086,8.1c-.078,1.253-.17,2.444-.182,3.561-.012.558-.039,1.1-.036,1.616s.009,1.016.013,1.491c-.007.951.053,1.809.081,2.563q.026.565.048,1.051.038.482.07.882c.038.519.068.928.089,1.222.008.131.014.235.018.318A.442.442,0,0,1-141.2,153.59Z" transform="translate(141.673 -112.896)" fill="#455a64"/>
                </g>
              </g>
            </g>
            <g id="Group_15532" data-name="Group 15532" transform="translate(7.192 6.806)">
              <g id="Group_15531" data-name="Group 15531">
                <g id="Group_15530" data-name="Group 15530">
                  <path id="Path_29993" data-name="Path 29993" d="M-131.994,167.425a.477.477,0,0,1-.041-.107l-.1-.318-.373-1.229-.265-.891c-.1-.326-.171-.687-.268-1.072-.175-.773-.425-1.643-.587-2.629l-.287-1.54c-.107-.535-.159-1.1-.244-1.681-.069-.583-.181-1.181-.222-1.805s-.108-1.265-.163-1.922a62.077,62.077,0,0,1,.063-8.584,67.74,67.74,0,0,1,1.284-8.489l.437-1.879c.139-.61.318-1.19.468-1.757.295-1.137.636-2.176.937-3.127s.619-1.8.879-2.545.514-1.383.725-1.9l.485-1.19.131-.308a.457.457,0,0,1,.051-.1.5.5,0,0,1-.032.11l-.112.315-.449,1.2c-.2.52-.444,1.157-.692,1.909s-.572,1.594-.849,2.551-.624,1.992-.911,3.128c-.146.567-.322,1.147-.457,1.756l-.428,1.876a69.62,69.62,0,0,0-1.265,8.466,63.582,63.582,0,0,0-.078,8.555l.154,1.917c.038.623.146,1.22.212,1.8.082.579.13,1.144.232,1.678l.274,1.539c.153.985.392,1.855.557,2.629.091.385.161.747.251,1.074l.248.894c.143.527.255.942.336,1.239l.082.324A.52.52,0,0,1-131.994,167.425Z" transform="translate(134.665 -124.351)" fill="#455a64"/>
                </g>
              </g>
            </g>
            <g id="Group_15535" data-name="Group 15535" transform="translate(15.985 0.104)">
              <g id="Group_15534" data-name="Group 15534">
                <g id="Group_15533" data-name="Group 15533">
                  <path id="Path_29994" data-name="Path 29994" d="M-105.659,151.37a.587.587,0,0,1-.061-.111l-.16-.334-.255-.546-.316-.76a27.608,27.608,0,0,1-1.483-5.024,28.743,28.743,0,0,1-.455-7.751,28.817,28.817,0,0,1,.723-4.539c.369-1.551.855-3.129,1.35-4.74s.97-3.189,1.315-4.737a23.756,23.756,0,0,0,.609-4.521,14.644,14.644,0,0,0-.42-4.09,10.641,10.641,0,0,0-1.444-3.268,9.115,9.115,0,0,0-3.878-3.362,8.149,8.149,0,0,0-1.348-.433l-.362-.074a.591.591,0,0,1-.123-.032.565.565,0,0,1,.126.012l.367.055a7.359,7.359,0,0,1,1.37.4,9.067,9.067,0,0,1,3.966,3.355,10.721,10.721,0,0,1,1.488,3.3,14.724,14.724,0,0,1,.444,4.137,23.718,23.718,0,0,1-.6,4.558c-.346,1.558-.821,3.14-1.315,4.753s-.98,3.185-1.35,4.727a28.993,28.993,0,0,0-.73,4.507,29.075,29.075,0,0,0,.41,7.709,29.079,29.079,0,0,0,1.416,5.023l.3.765.237.553.142.342A.545.545,0,0,1-105.659,151.37Z" transform="translate(111.967 -107.049)" fill="#455a64"/>
                </g>
              </g>
            </g>
          </g>
        </g>
        <g id="Group_15723" data-name="Group 15723" transform="translate(-102.142 176.644)">
          <g id="Group_15695" data-name="Group 15695" transform="translate(289.866 133.356)">
            <g id="Group_15693" data-name="Group 15693">
              <g id="Group_15683" data-name="Group 15683" transform="translate(5.805 0.988)">
                <g id="Group_15682" data-name="Group 15682">
                  <g id="Group_15675" data-name="Group 15675" transform="translate(0 0.715)">
                    <g id="Group_15674" data-name="Group 15674">
                      <g id="Group_15560" data-name="Group 15560">
                        <g id="Group_15559" data-name="Group 15559">
                          <g id="Group_15558" data-name="Group 15558">
                            <g id="Group_15547" data-name="Group 15547">
                              <g id="Group_15546" data-name="Group 15546">
                                <g id="Group_15545" data-name="Group 15545">
                                  <g id="Group_15544" data-name="Group 15544">
                                    <g id="Group_15543" data-name="Group 15543">
                                      <g id="Group_15542" data-name="Group 15542">
                                        <g id="Group_15541" data-name="Group 15541">
                                          <g id="Group_15540" data-name="Group 15540">
                                            <g id="Group_15539" data-name="Group 15539">
                                              <g id="Group_15538" data-name="Group 15538">
                                                <path id="Path_29995" data-name="Path 29995" d="M371.036,147.132l-1.53,21.674a6.758,6.758,0,0,1-6.741,6.282h0a6.757,6.757,0,0,1-6.743-7.2c.136-2.063.258-3.752.258-3.752s-5.247-.816-5.312-6.062c-.037-3.03.485-9.906.933-15.174a6.881,6.881,0,0,1,6.858-6.295h3.169A9.71,9.71,0,0,1,371.036,147.132Z" transform="translate(-350.965 -136.605)" fill="#ffbe9d"/>
                                              </g>
                                            </g>
                                          </g>
                                        </g>
                                      </g>
                                    </g>
                                  </g>
                                </g>
                              </g>
                            </g>
                            <g id="Group_15557" data-name="Group 15557" transform="translate(5.22 25.512)">
                              <g id="Group_15556" data-name="Group 15556">
                                <g id="Group_15555" data-name="Group 15555">
                                  <g id="Group_15554" data-name="Group 15554">
                                    <g id="Group_15553" data-name="Group 15553">
                                      <g id="Group_15552" data-name="Group 15552">
                                        <g id="Group_15551" data-name="Group 15551">
                                          <g id="Group_15550" data-name="Group 15550">
                                            <g id="Group_15549" data-name="Group 15549">
                                              <g id="Group_15548" data-name="Group 15548">
                                                <path id="Path_29996" data-name="Path 29996" d="M361.022,187.311a12.675,12.675,0,0,0,6.831-2.02s-1.69,3.817-6.925,3.344Z" transform="translate(-360.928 -185.291)" fill="#eb996e"/>
                                              </g>
                                            </g>
                                          </g>
                                        </g>
                                      </g>
                                    </g>
                                  </g>
                                </g>
                              </g>
                            </g>
                          </g>
                        </g>
                      </g>
                      <g id="Group_15673" data-name="Group 15673" transform="translate(18.097 14.3)">
                        <g id="Group_15661" data-name="Group 15661">
                          <g id="Group_15660" data-name="Group 15660">
                            <g id="Group_15659" data-name="Group 15659">
                              <g id="Group_15658" data-name="Group 15658">
                                <g id="Group_15657" data-name="Group 15657">
                                  <g id="Group_15656" data-name="Group 15656">
                                    <g id="Group_15655" data-name="Group 15655">
                                      <g id="Group_15654" data-name="Group 15654">
                                        <g id="Group_15653" data-name="Group 15653">
                                          <g id="Group_15652" data-name="Group 15652">
                                            <path id="Path_30005" data-name="Path 30005" d="M385.705,164.06c.09-.039,3.6-1.066,3.49,2.52s-3.692,2.732-3.695,2.628S385.705,164.06,385.705,164.06Z" transform="translate(-385.501 -163.894)" fill="#ffbe9d"/>
                                          </g>
                                        </g>
                                      </g>
                                    </g>
                                  </g>
                                </g>
                              </g>
                            </g>
                          </g>
                        </g>
                        <g id="Group_15672" data-name="Group 15672" transform="translate(1.135 1.174)">
                          <g id="Group_15671" data-name="Group 15671">
                            <g id="Group_15670" data-name="Group 15670">
                              <g id="Group_15669" data-name="Group 15669">
                                <g id="Group_15668" data-name="Group 15668">
                                  <g id="Group_15667" data-name="Group 15667">
                                    <g id="Group_15666" data-name="Group 15666">
                                      <g id="Group_15665" data-name="Group 15665">
                                        <g id="Group_15664" data-name="Group 15664">
                                          <g id="Group_15663" data-name="Group 15663">
                                            <g id="Group_15662" data-name="Group 15662">
                                              <path id="Path_30006" data-name="Path 30006" d="M387.671,168.952c.016-.011.061.046.165.1a.626.626,0,0,0,.467.025,1.547,1.547,0,0,0,.76-1.365,2.063,2.063,0,0,0-.146-.9.721.721,0,0,0-.455-.495.318.318,0,0,0-.374.159c-.051.1-.031.171-.05.177s-.075-.062-.042-.21a.4.4,0,0,1,.148-.221.475.475,0,0,1,.348-.08.878.878,0,0,1,.635.577,2.124,2.124,0,0,1,.184,1.007,1.623,1.623,0,0,1-.961,1.52.67.67,0,0,1-.569-.113C387.674,169.039,387.658,168.958,387.671,168.952Z" transform="translate(-387.667 -166.135)" fill="#eb996e"/>
                                            </g>
                                          </g>
                                        </g>
                                      </g>
                                    </g>
                                  </g>
                                </g>
                              </g>
                            </g>
                          </g>
                        </g>
                      </g>
                    </g>
                  </g>
                  <g id="Group_15681" data-name="Group 15681" transform="translate(3.8)">
                    <g id="Group_15680" data-name="Group 15680">
                      <g id="Group_15679" data-name="Group 15679">
                        <g id="Group_15678" data-name="Group 15678">
                          <g id="Group_15677" data-name="Group 15677">
                            <g id="Group_15676" data-name="Group 15676">
                              <path id="Path_30007" data-name="Path 30007" d="M374.714,150.3a1.886,1.886,0,0,0-1.727.885c-.233.512-.285,1.093-.517,1.605a1.269,1.269,0,0,1-1.306.846,1.1,1.1,0,0,1-.747-.818,3.032,3.032,0,0,1-.01-1.156c.211-1.675.563-3.336.63-5.023a8.613,8.613,0,0,0-1.059-4.877,4.712,4.712,0,0,0-4.2-2.359c-1.115.09-2.137.671-3.245.826a4.381,4.381,0,0,1-3.64-1.215c-.12-.12-.68-.489-.68-.489a2.062,2.062,0,0,1,.377-1.109c2.2-2.032,6.156-2.6,9.058-1.869a10.467,10.467,0,0,1,6.871,5.5c1.249,2.72.878,6.5.19,9.254" transform="translate(-358.218 -135.241)" fill="#263238"/>
                            </g>
                          </g>
                        </g>
                      </g>
                    </g>
                  </g>
                </g>
              </g>
              <g id="Group_15684" data-name="Group 15684" transform="translate(5.661 4.79)">
                <path id="Path_30008" data-name="Path 30008" d="M351.2,144.759a3.426,3.426,0,0,0,2.85,1.843,9.463,9.463,0,0,0,3.5-.51,27.357,27.357,0,0,1,5.39-.8c.178.005.391,0,.485-.148.125-.2-.075-.44-.26-.585-1.564-1.225-5.344-1.976-7.328-2.06a5.84,5.84,0,0,0-5.143,2.44" transform="translate(-350.692 -142.498)" fill="#263238"/>
              </g>
              <g id="Group_15687" data-name="Group 15687" transform="translate(6.682)">
                <g id="Group_15686" data-name="Group 15686">
                  <g id="Group_15685" data-name="Group 15685">
                    <path id="Path_30009" data-name="Path 30009" d="M352.64,140.544a6.724,6.724,0,0,1,3.907-1.765,15.877,15.877,0,0,1,15.884,8.821,17.959,17.959,0,0,0,.816-4.154,10.211,10.211,0,0,0-7.176-9.419S356.222,130.268,352.64,140.544Z" transform="translate(-352.64 -133.356)" fill="#ff725e"/>
                  </g>
                </g>
              </g>
              <g id="Group_15690" data-name="Group 15690" transform="translate(6.682)" opacity="0.4">
                <g id="Group_15689" data-name="Group 15689">
                  <g id="Group_15688" data-name="Group 15688">
                    <path id="Path_30010" data-name="Path 30010" d="M352.64,140.544a6.4,6.4,0,0,1,4.376-1.988c4.06-.179,11.733,1.68,15.414,9.043a17.959,17.959,0,0,0,.816-4.154,10.211,10.211,0,0,0-7.176-9.419S356.222,130.268,352.64,140.544Z" transform="translate(-352.64 -133.356)" fill="#4d1700"/>
                  </g>
                </g>
              </g>
              <g id="Group_15692" data-name="Group 15692" transform="translate(0 0.291)">
                <g id="Group_15691" data-name="Group 15691">
                  <path id="Path_30011" data-name="Path 30011" d="M365.749,146.75c-1.96-3.295-4.892-5.56-8.056-7.537a50.607,50.607,0,0,0-12-4.888,7.842,7.842,0,0,0-3.314-.347,2.987,2.987,0,0,0-2.458,2.011c-.343,1.359,2.069,3.457,3.2,4.282a37.35,37.35,0,0,0,3.446,2.035s-.032-2.531,4-3.041C356.077,138.569,365.916,146.891,365.749,146.75Z" transform="translate(-339.888 -133.911)" fill="#f16427"/>
                </g>
              </g>
            </g>
            <g id="Group_15694" data-name="Group 15694" transform="translate(10.933 1.272)">
              <path id="Path_30012" data-name="Path 30012" d="M368.353,137.8a14.417,14.417,0,0,0-7.6-1.846,3.626,3.626,0,0,1,1.165-.159,10.531,10.531,0,0,1,5.473,1.329A3.623,3.623,0,0,1,368.353,137.8Z" transform="translate(-360.752 -135.785)" fill="#fff"/>
            </g>
          </g>
          <g id="Group_15696" data-name="Group 15696" transform="translate(275.561 221.996)">
            <path id="Path_30013" data-name="Path 30013" d="M372.513,302.65c0,.075-13.416.136-29.961.136s-29.963-.061-29.963-.136,13.412-.136,29.963-.136S372.513,302.575,372.513,302.65Z" transform="translate(-312.589 -302.514)" fill="#263238"/>
          </g>
          <g id="Group_15722" data-name="Group 15722" transform="translate(234.799 164.364)">
            <g id="Group_15711" data-name="Group 15711" transform="translate(0 3.703)">
              <path id="Path_30014" data-name="Path 30014" d="M299.656,215.256l-7.713,3.489-11.971-9.758-3.647,5.775s6.816,7.886,9.342,10.565,4.209,4.109,6.2,3.853,13.358-5.614,13.358-5.614S302.548,215.594,299.656,215.256Z" transform="translate(-254.565 -204.066)" fill="#ffbe9d"/>
              <g id="Group_15704" data-name="Group 15704">
                <g id="Group_15703" data-name="Group 15703" transform="translate(10.227)">
                  <path id="Path_30015" data-name="Path 30015" d="M256.386,199.6a5.185,5.185,0,0,0,2.486,1.058c.983-.071,4.709-.09,4.986-.071s3.911,2,3.911,2l2.661,2.56-4.177,5.807s-.69-.793-1.159-.733a54.121,54.121,0,0,1-7.073-.727c-.864-.293-1.969-.464-2.258-1s-.355-.909.438-1.6a1.309,1.309,0,0,1-.291-1.836s-1.2-.875-.767-1.683c0,0-.679-.28-.789-.707a4.607,4.607,0,0,1,.047-1.347l1.714-.532S255.6,200.193,256.386,199.6Z" transform="translate(-254.316 -199.596)" fill="#ffbe9d"/>
                  <g id="Group_15697" data-name="Group 15697" transform="translate(0.735 1.11)">
                    <path id="Path_30016" data-name="Path 30016" d="M256.381,201.92c0-.02.081-.036.223-.075a2.523,2.523,0,0,1,.639-.131,1.568,1.568,0,0,1,.93.363,1.081,1.081,0,0,1,.356,1.177.843.843,0,0,1-.466.5,2.81,2.81,0,0,1-.558.159l-.921.191a2.833,2.833,0,0,1-.865.108,2.805,2.805,0,0,1,.82-.3l.907-.248c.344-.086.724-.166.825-.506a.843.843,0,0,0-.264-.9,1.488,1.488,0,0,0-.772-.359,4.613,4.613,0,0,0-.614.043C256.467,201.959,256.381,201.938,256.381,201.92Z" transform="translate(-255.719 -201.714)" fill="#eb996e"/>
                  </g>
                  <g id="Group_15698" data-name="Group 15698" transform="translate(1.654 2.582)">
                    <path id="Path_30017" data-name="Path 30017" d="M259.364,204.762a1.21,1.21,0,0,1,.4-.112,6.2,6.2,0,0,1,1.13-.127,2.938,2.938,0,0,1,1.656.428,1.412,1.412,0,0,1,.625.855.98.98,0,0,1-.428,1.063,2.647,2.647,0,0,1-1.086.223l-.983.077-1.665.115a8.7,8.7,0,0,1-1.54.037,8.558,8.558,0,0,1,1.523-.229l1.661-.173.981-.093a2.55,2.55,0,0,0,.972-.191.715.715,0,0,0,.3-.775,1.175,1.175,0,0,0-.505-.7,2.868,2.868,0,0,0-1.516-.442C259.958,204.7,259.368,204.815,259.364,204.762Z" transform="translate(-257.473 -204.523)" fill="#eb996e"/>
                  </g>
                  <g id="Group_15699" data-name="Group 15699" transform="translate(2.039 4.918)">
                    <path id="Path_30018" data-name="Path 30018" d="M263.256,208.984c.006-.013.109.015.22.162a.849.849,0,0,1,.1.741,1.279,1.279,0,0,1-.809.756,4.37,4.37,0,0,1-1.3.173c-1.8.084-3.235.438-3.255.359a9.069,9.069,0,0,1,3.241-.632,4.721,4.721,0,0,0,1.231-.137,1.121,1.121,0,0,0,.711-.584.8.8,0,0,0-.008-.622C263.318,209.061,263.243,209,263.256,208.984Z" transform="translate(-258.208 -208.982)" fill="#eb996e"/>
                  </g>
                  <g id="Group_15700" data-name="Group 15700" transform="translate(7.799 5.223)">
                    <path id="Path_30019" data-name="Path 30019" d="M274.433,210.27a1.787,1.787,0,0,1-.757.292,5.524,5.524,0,0,1-3.823-.512c-.441-.243-.672-.455-.653-.481a7.725,7.725,0,0,0,5.233.7Z" transform="translate(-269.199 -209.564)" fill="#eb996e"/>
                  </g>
                  <g id="Group_15701" data-name="Group 15701" transform="translate(7.056 3.053)">
                    <path id="Path_30020" data-name="Path 30020" d="M267.786,205.624c.035-.07.407.061.867,0s.795-.255.845-.194-.262.407-.815.466S267.741,205.682,267.786,205.624Z" transform="translate(-267.782 -205.423)" fill="#eb996e"/>
                  </g>
                  <g id="Group_15702" data-name="Group 15702" transform="translate(6.633 6.825)">
                    <path id="Path_30021" data-name="Path 30021" d="M266.99,214.773a2.642,2.642,0,0,1,2.288-2.134,5.225,5.225,0,0,0-2.288,2.134Z" transform="translate(-266.975 -212.62)" fill="#eb996e"/>
                  </g>
                </g>
                <path id="Path_30022" data-name="Path 30022" d="M239.244,245.493H262l4.223,33.287H234.8Z" transform="translate(-234.799 -221.443)" fill="#f16427"/>
                <path id="Path_30023" data-name="Path 30023" d="M286.717,245.493h2.633l7.765,33.287h-6.176Z" transform="translate(-259.511 -221.443)" fill="#ff725e"/>
                <path id="Path_30024" data-name="Path 30024" d="M286.717,245.493h2.633l7.765,33.287h-6.176Z" transform="translate(-259.511 -221.443)" opacity="0.3"/>
              </g>
              <g id="Group_15705" data-name="Group 15705" transform="translate(12.79 6.72)">
                <path id="Path_30025" data-name="Path 30025" d="M260.91,212.444c0-.016.066-.038.184-.01a.686.686,0,0,1,.4.31.847.847,0,0,1,.073.753,1.277,1.277,0,0,1-.618.673,2.533,2.533,0,0,1-1.156.226l.1-.067c-.3.573-.655.826-.681.793s.238-.342.471-.891l.025-.06.075-.007a2.776,2.776,0,0,0,1.04-.237,1.1,1.1,0,0,0,.509-.522.675.675,0,0,0-.007-.569C261.17,212.512,260.9,212.483,260.91,212.444Z" transform="translate(-259.206 -212.42)" fill="#eb996e"/>
              </g>
              <g id="Group_15706" data-name="Group 15706" transform="translate(10.22 8.631)">
                <path id="Path_30026" data-name="Path 30026" d="M254.31,232.939a3.249,3.249,0,0,1,.05-.675c.049-.432.137-1.056.264-1.824.248-1.536.665-3.644,1.155-5.964s.937-4.419,1.233-5.943c.139-.721.256-1.326.348-1.806a3.261,3.261,0,0,1,.155-.659,3.218,3.218,0,0,1-.049.675c-.049.432-.138,1.056-.264,1.824-.248,1.536-.665,3.645-1.156,5.965s-.936,4.418-1.233,5.942c-.139.721-.256,1.326-.348,1.806A3.2,3.2,0,0,1,254.31,232.939Z" transform="translate(-254.303 -216.068)" fill="#ff725e"/>
              </g>
              <g id="Group_15707" data-name="Group 15707" transform="translate(17.14 6.02)">
                <path id="Path_30027" data-name="Path 30027" d="M272.61,230.9a4.525,4.525,0,0,1-.252-.765l-.588-2.113c-.485-1.787-1.138-4.26-1.841-7s-1.327-5.218-1.765-7.017l-.5-2.134a4.541,4.541,0,0,1-.149-.791,4.607,4.607,0,0,1,.252.766c.152.547.351,1.257.588,2.113.486,1.787,1.138,4.261,1.842,7s1.327,5.216,1.764,7.015l.5,2.134A4.536,4.536,0,0,1,272.61,230.9Z" transform="translate(-267.507 -211.085)" fill="#ff725e"/>
              </g>
              <g id="Group_15708" data-name="Group 15708" transform="translate(31.425 53.867)">
                <path id="Path_30028" data-name="Path 30028" d="M300.949,305.865a6.524,6.524,0,0,1-1.1-.766c-.654-.5-1.547-1.206-2.522-2l-.493-.4.2-.03c-.613.923-1.164,1.732-1.569,2.305a5.087,5.087,0,0,1-.694.892,5.029,5.029,0,0,1,.544-.991c.365-.6.889-1.427,1.493-2.355l.081-.125.117.094.495.4c.975.792,1.848,1.522,2.472,2.06A6.526,6.526,0,0,1,300.949,305.865Z" transform="translate(-294.77 -302.394)" fill="#263238"/>
              </g>
              <g id="Group_15709" data-name="Group 15709" transform="translate(28.584 24.05)">
                <path id="Path_30029" data-name="Path 30029" d="M289.352,245.493c.074-.013,1.252,6.7,2.63,14.984s2.435,15.019,2.36,15.031-1.251-6.7-2.629-14.986S289.278,245.505,289.352,245.493Z" transform="translate(-289.348 -245.493)" fill="#263238"/>
              </g>
              <g id="Group_15710" data-name="Group 15710" transform="translate(2.266 28.788)">
                <path id="Path_30030" data-name="Path 30030" d="M265.39,259.245a5.769,5.769,0,0,1-.531.5,9.409,9.409,0,0,1-1.736,1.181,10.323,10.323,0,0,1-3.142,1.079,9.287,9.287,0,0,1-4.384-.255,5.4,5.4,0,0,1-2.2-1.34,4.156,4.156,0,0,1-1.2-2.518,3.267,3.267,0,0,1,1.134-2.737,2.605,2.605,0,0,1,1.476-.615,3.052,3.052,0,0,1,1.606.334,3.824,3.824,0,0,1,1.289,1.072,4.352,4.352,0,0,1,.734,1.545,7.657,7.657,0,0,1-.012,3.476,11.764,11.764,0,0,1-3.574,6.266,10.761,10.761,0,0,1-3.119,2,7.726,7.726,0,0,1-3.55.606,6.03,6.03,0,0,1-3.239-1.255,4.582,4.582,0,0,1-1.732-2.832,4.293,4.293,0,0,1,.611-3.1,2.922,2.922,0,0,1,2.593-1.4,1.9,1.9,0,0,1,1.283.691,2.839,2.839,0,0,1,.582,1.27,4.535,4.535,0,0,1-.3,2.559,6.843,6.843,0,0,1-2.919,3.252,10.214,10.214,0,0,1-3.124,1.13,16.028,16.028,0,0,1-2.082.265c-.239.014-.422.022-.545.024a.931.931,0,0,1-.186,0,.967.967,0,0,1,.184-.025l.542-.051a18.329,18.329,0,0,0,2.066-.314,10.294,10.294,0,0,0,3.069-1.158,6.71,6.71,0,0,0,2.817-3.192,4.348,4.348,0,0,0,.273-2.445,2.633,2.633,0,0,0-.543-1.172,1.674,1.674,0,0,0-1.139-.607,2.7,2.7,0,0,0-2.371,1.308,4.055,4.055,0,0,0-.563,2.924,4.334,4.334,0,0,0,1.646,2.671,5.772,5.772,0,0,0,3.1,1.192,8.9,8.9,0,0,0,6.463-2.544,11.52,11.52,0,0,0,3.5-6.118,7.422,7.422,0,0,0,.021-3.355,4.1,4.1,0,0,0-.685-1.456,3.574,3.574,0,0,0-1.2-1,2.8,2.8,0,0,0-1.472-.313,2.36,2.36,0,0,0-1.341.554,3.036,3.036,0,0,0-1.062,2.536,3.946,3.946,0,0,0,1.125,2.39,5.216,5.216,0,0,0,2.111,1.3,9.186,9.186,0,0,0,4.3.288,10.411,10.411,0,0,0,3.118-1.023,10.122,10.122,0,0,0,1.75-1.13c.191-.144.323-.27.419-.347A.962.962,0,0,1,265.39,259.245Z" transform="translate(-239.123 -254.534)" fill="#fff"/>
              </g>
            </g>
            <g id="Group_15713" data-name="Group 15713" transform="translate(44.668 0)">
              <path id="Path_30031" data-name="Path 30031" d="M336.12,201.495h-4.1c-1.324.463-11.977,9.529-11.977,9.529l6.021,9.462,7.808-4.566Z" transform="translate(-320.041 -196.797)" fill="#273b60"/>
              <path id="Path_30032" data-name="Path 30032" d="M337.5,197.228l9.065-3.441s1.324,2.779,5.36,2.184,8.8-3.441,8.8-3.441,6.948,3.97,9,5.624-1.654,36.327-1.654,36.327l-.926,10.389s.728.529.728,2.316.066,2.978.066,2.978H332.029s-.878-4.169-.216-5.823a21.548,21.548,0,0,1,1.753-3.308l.563-16.013.2-14.292Z" transform="translate(-325.527 -192.53)" fill="#273b60"/>
              <path id="Path_30033" data-name="Path 30033" d="M393.744,203.263s2.9.818,3.757,5.116.7,20.708.7,20.708l-16.183-3.5s2.2-6.889,2.2-7.358,4.454-11.565,4.61-11.8S393.744,203.263,393.744,203.263Z" transform="translate(-349.543 -197.639)" fill="#273b60"/>
              <g id="Group_15712" data-name="Group 15712" transform="translate(8.455 11.447)">
                <path id="Path_30034" data-name="Path 30034" d="M336.247,214.376c.075,0,.179,2.868.232,6.407s.034,6.41-.041,6.411-.179-2.867-.232-6.408S336.172,214.377,336.247,214.376Z" transform="translate(-336.176 -214.376)" fill="#fff"/>
              </g>
            </g>
            <g id="Group_15714" data-name="Group 15714" transform="translate(77.67 12.985)">
              <path id="Path_30035" data-name="Path 30035" d="M386.718,217.311a2.338,2.338,0,0,1-.061.57c-.056.364-.15.888-.277,1.533-.253,1.291-.648,3.065-1.158,5.007s-1.041,3.681-1.455,4.93c-.207.624-.383,1.127-.513,1.47a2.311,2.311,0,0,1-.227.526,2.31,2.31,0,0,1,.126-.559q.177-.615.43-1.5c.367-1.261.866-3,1.376-4.941s.933-3.7,1.234-4.979q.212-.889.362-1.513A2.346,2.346,0,0,1,386.718,217.311Z" transform="translate(-383.023 -217.311)" fill="#fff"/>
            </g>
            <g id="Group_15715" data-name="Group 15715" transform="translate(79.451 12.638)">
              <path id="Path_30036" data-name="Path 30036" d="M386.815,216.648a39.991,39.991,0,0,1-.348,6.591,39.966,39.966,0,0,1,.348-6.591Z" transform="translate(-386.421 -216.648)" fill="#fff"/>
            </g>
            <g id="Group_15716" data-name="Group 15716" transform="translate(68.864 17.922)">
              <path id="Path_30037" data-name="Path 30037" d="M373.164,226.867a44.186,44.186,0,0,1-6.947,0,44.349,44.349,0,0,1,6.947,0Z" transform="translate(-366.217 -226.731)" fill="#fff"/>
            </g>
            <g id="Group_15721" data-name="Group 15721" transform="translate(39.135 28.128)">
              <path id="Path_30038" data-name="Path 30038" d="M342.647,259.7l17.9-2.152,2.823-11.336,10.018,2.169s-3.962,15.736-8.045,17.258-24.284-1.05-24.284-1.05Z" transform="translate(-324.515 -246.209)" fill="#ffbe9d"/>
              <path id="Path_30039" data-name="Path 30039" d="M326.884,270.754a21.235,21.235,0,0,0-2.982-1.009c-.831-.123-1.81.059-2.056.458l-4.832,2.8s-3.571-.339-3.909.462c0,0-2.278-.647-2.647-.184,0,0-1.139.369-.954.892s4.309,1.97,4.309,1.97l5.663.585a13.661,13.661,0,0,1,3.047-1.262,14.9,14.9,0,0,1,2.565.2c-.073-.024,3.3.379,3.3.379a5.291,5.291,0,0,0,.966-2.767c.277-2.032,0-2.463,0-2.463Z" transform="translate(-309.483 -257.394)" fill="#ffbe9d"/>
              <g id="Group_15717" data-name="Group 15717" transform="translate(12.155 12.222)">
                <path id="Path_30040" data-name="Path 30040" d="M335.535,273.255c0,.014-.153.022-.352-.137-.2-.143-.374-.479-.686-.693a1.781,1.781,0,0,0-.619-.187,1.433,1.433,0,0,1-.773-.34,1.388,1.388,0,0,1-.416-.848,1.2,1.2,0,0,1,.3-.974,1.96,1.96,0,0,1,1.8-.5,3.174,3.174,0,0,1,1.351.692,6.135,6.135,0,0,1,.714.711c.154.18.231.287.217.3-.034.036-.394-.354-1.05-.859a3.182,3.182,0,0,0-1.281-.6,1.749,1.749,0,0,0-1.552.434,1.086,1.086,0,0,0,.088,1.456c.344.358.936.261,1.325.548a5.684,5.684,0,0,1,.651.776C335.409,273.2,335.541,273.232,335.535,273.255Z" transform="translate(-332.679 -269.533)" fill="#eb996e"/>
              </g>
              <g id="Group_15718" data-name="Group 15718" transform="translate(7.407 14.953)">
                <path id="Path_30041" data-name="Path 30041" d="M328.234,274.8c0,.045-.272.029-.654.2a10.189,10.189,0,0,1-1.547.732,4.419,4.419,0,0,1-1.724-.134,6,6,0,0,1-.69-.1c-.008-.033.266-.123.712-.09a5.925,5.925,0,0,0,1.64.06c.6-.154,1.1-.529,1.543-.647C327.952,274.682,328.244,274.771,328.234,274.8Z" transform="translate(-323.619 -274.745)" fill="#eb996e"/>
              </g>
              <g id="Group_15719" data-name="Group 15719" transform="translate(3.363 16.186)">
                <path id="Path_30042" data-name="Path 30042" d="M324.679,278.174c.008.015-.1.1-.326.214a5.127,5.127,0,0,1-.992.378,9.67,9.67,0,0,1-3.479.2c-.674-.085-1.312-.187-1.894-.274a5.954,5.954,0,0,1-1.544-.345.967.967,0,0,1-.462-.446.8.8,0,0,1-.069-.478c.059-.275.232-.337.23-.324.02.017-.109.106-.125.337a.764.764,0,0,0,.508.737,6.738,6.738,0,0,0,1.5.27l1.884.251a11.029,11.029,0,0,0,3.408-.117C324.171,278.393,324.658,278.13,324.679,278.174Z" transform="translate(-315.901 -277.099)" fill="#eb996e"/>
              </g>
              <g id="Group_15720" data-name="Group 15720" transform="translate(36.197 11.764)">
                <path id="Path_30043" data-name="Path 30043" d="M381.373,272.812a10.884,10.884,0,0,0-2.81-4.149,5.836,5.836,0,0,1,2.81,4.149Z" transform="translate(-378.561 -268.659)" fill="#eb996e"/>
              </g>
            </g>
          </g>
        </g>
        <g id="Group_16066" data-name="Group 16066" transform="translate(137.917 428.542)">
          <g id="Group_16000" data-name="Group 16000" transform="translate(0.18 0.18)">
            <g id="Group_15999" data-name="Group 15999">
              <rect id="Rectangle_18315" data-name="Rectangle 18315" width="87.407" height="37.572" rx="4.431" fill="#f5f5f5"/>
            </g>
          </g>
          <g id="Group_16002" data-name="Group 16002" transform="translate(0.18 0.246)">
            <g id="Group_16001" data-name="Group 16001">
              <path id="Rectangle_18316" data-name="Rectangle 18316" d="M3.993,0H44.422a0,0,0,0,1,0,0V37.506a0,0,0,0,1,0,0H3.992A3.992,3.992,0,0,1,0,33.513V3.993A3.993,3.993,0,0,1,3.993,0Z" fill="#fff"/>
            </g>
          </g>
          <g id="Group_16005" data-name="Group 16005" transform="translate(44.522 0.718)">
            <g id="Group_16004" data-name="Group 16004">
              <g id="Group_16003" data-name="Group 16003">
                <path id="Path_30123" data-name="Path 30123" d="M262.479,320.111c-.1,0-.18-8.357-.18-18.662s.08-18.664.18-18.664.181,8.355.181,18.664S262.579,320.111,262.479,320.111Z" transform="translate(-262.299 -282.785)" fill="#e0e0e0"/>
              </g>
            </g>
          </g>
          <g id="Group_16008" data-name="Group 16008" transform="translate(0 0)">
            <g id="Group_16007" data-name="Group 16007">
              <g id="Group_16006" data-name="Group 16006">
                <path id="Path_30124" data-name="Path 30124" d="M282.61,319.5c0-.015.216,0,.624-.083a3.074,3.074,0,0,0,2.252-2.047,4.812,4.812,0,0,0,.143-1.618c0-1.193-.01-2.567-.017-4.114-.013-6.2-.033-15.155-.058-26.219a4.983,4.983,0,0,0-.062-1.014,2.982,2.982,0,0,0-.373-.934,2.929,2.929,0,0,0-1.575-1.255,7.155,7.155,0,0,0-2.136-.152l-2.243,0-9.418.01-20.78.017-47.614.015a2.9,2.9,0,0,0-2.478,1.4,2.842,2.842,0,0,0-.416,1.4l0,1.561q0,3.128,0,6.213,0,6.17,0,12.149t0,11.718a2.886,2.886,0,0,0,2.5,2.752c.43.054.922.022,1.384.031l5.557,0,38.887.039,26.217.058,7.128.034,1.854.017c.417.006.631.019.631.019s-.214.012-.631.019l-1.854.017-7.128.034-26.217.058-38.887.039-5.557,0a13.9,13.9,0,0,1-1.431-.033,3.229,3.229,0,0,1-2.795-3.075q-.005-5.75-.011-11.733t0-12.149q0-3.084,0-6.213l0-1.573a3.2,3.2,0,0,1,.468-1.577,3.262,3.262,0,0,1,2.786-1.569l47.614.014,20.78.017,9.418.01,2.243,0h1.1a3.478,3.478,0,0,1,1.117.17,3.191,3.191,0,0,1,1.712,1.373,3.235,3.235,0,0,1,.4,1.018,5.23,5.23,0,0,1,.064,1.066c-.024,11.063-.044,20.019-.058,26.219-.006,1.546-.012,2.921-.017,4.114a4.856,4.856,0,0,1-.165,1.647,3.153,3.153,0,0,1-.714,1.173,3.093,3.093,0,0,1-1.616.882A2.484,2.484,0,0,1,282.61,319.5Z" transform="translate(-198.096 -281.75)" fill="#e0e0e0"/>
              </g>
            </g>
          </g>
          <g id="Group_16011" data-name="Group 16011" transform="translate(48.026 8.612)">
            <g id="Group_16010" data-name="Group 16010">
              <g id="Group_16009" data-name="Group 16009">
                <path id="Path_30125" data-name="Path 30125" d="M283.356,294.349c0,.1-3.583.181-8,.181s-8-.081-8-.181,3.582-.18,8-.18S283.356,294.249,283.356,294.349Z" transform="translate(-267.352 -294.169)" fill="#263238"/>
              </g>
            </g>
          </g>
          <g id="Group_16014" data-name="Group 16014" transform="translate(47.861 13.545)">
            <g id="Group_16013" data-name="Group 16013">
              <g id="Group_16012" data-name="Group 16012">
                <path id="Path_30126" data-name="Path 30126" d="M298.71,301.462c0,.1-7.074.18-15.8.18s-15.8-.08-15.8-.18,7.072-.18,15.8-.18S298.71,301.362,298.71,301.462Z" transform="translate(-267.114 -301.282)" fill="#e0e0e0"/>
              </g>
            </g>
          </g>
          <g id="Group_16017" data-name="Group 16017" transform="translate(47.861 16.438)">
            <g id="Group_16016" data-name="Group 16016">
              <g id="Group_16015" data-name="Group 16015">
                <path id="Path_30127" data-name="Path 30127" d="M298.71,305.635c0,.1-7.074.181-15.8.181s-15.8-.081-15.8-.181,7.072-.18,15.8-.18S298.71,305.535,298.71,305.635Z" transform="translate(-267.114 -305.455)" fill="#e0e0e0"/>
              </g>
            </g>
          </g>
          <g id="Group_16022" data-name="Group 16022" transform="translate(70.862 29.331)">
            <g id="Group_16021" data-name="Group 16021">
              <g id="Group_16020" data-name="Group 16020">
                <g id="Group_16018" data-name="Group 16018" transform="translate(0.087 0.086)">
                  <path id="Path_30128" data-name="Path 30128" d="M305.6,325.625a1.613,1.613,0,0,0-.39-.887,1.549,1.549,0,0,0-.793-.519,1.272,1.272,0,0,0-.982.164.388.388,0,1,1-.772.028,1.27,1.27,0,0,0-.971-.219,1.546,1.546,0,0,0-.821.474,1.613,1.613,0,0,0-.438.864,1.964,1.964,0,0,0,.211,1.213,2.779,2.779,0,0,0,.931.922c.614.394,1.424.888,1.424.888s.709-.5,1.344-.859a2.781,2.781,0,0,0,.981-.869A1.962,1.962,0,0,0,305.6,325.625Z" transform="translate(-300.409 -324.171)" fill="#fdce0c"/>
                </g>
                <g id="Group_16019" data-name="Group 16019">
                  <path id="Path_30129" data-name="Path 30129" d="M302.959,328.618l-.049-.03c-.008,0-.817-.5-1.424-.888a2.854,2.854,0,0,1-.96-.953,2.041,2.041,0,0,1-.221-1.268,1.714,1.714,0,0,1,.461-.912,1.645,1.645,0,0,1,.868-.5,1.363,1.363,0,0,1,1.038.234,1.323,1.323,0,0,1,.311.32,1.336,1.336,0,0,1,1.414-.525,1.616,1.616,0,0,1,.839.546,1.7,1.7,0,0,1,.409.935h0a2.037,2.037,0,0,1-.291,1.254,2.84,2.84,0,0,1-1.011.9c-.623.353-1.331.849-1.337.855Zm-1.082-4.4a1.067,1.067,0,0,0-.21.02,1.461,1.461,0,0,0-.774.448,1.535,1.535,0,0,0-.415.817,1.867,1.867,0,0,0,.2,1.158,2.686,2.686,0,0,0,.9.892c.52.334,1.189.744,1.372.856.17-.117.768-.527,1.306-.831a2.676,2.676,0,0,0,.95-.84,1.851,1.851,0,0,0,.264-1.145h0a1.524,1.524,0,0,0-.368-.838,1.47,1.47,0,0,0-.748-.491,1.19,1.19,0,0,0-.913.153,1.172,1.172,0,0,0-.383.411l-.078.136-.074-.137a1.168,1.168,0,0,0-.336-.384A1.181,1.181,0,0,0,301.876,324.219Z" transform="translate(-300.284 -324.046)" fill="#fdce0c"/>
                </g>
              </g>
            </g>
          </g>
          <g id="Group_16062" data-name="Group 16062" transform="translate(78.408 28.638)">
            <g id="Group_16061" data-name="Group 16061">
              <g id="Group_16051" data-name="Group 16051">
                <g id="Group_16028" data-name="Group 16028" transform="translate(0 0.712)">
                  <g id="Group_16027" data-name="Group 16027">
                    <g id="Group_16026" data-name="Group 16026">
                      <g id="Group_16025" data-name="Group 16025">
                        <g id="Group_16023" data-name="Group 16023" transform="translate(0.051 0.052)">
                          <path id="Path_30130" data-name="Path 30130" d="M316.206,327.69a.483.483,0,0,1-.071,0l-.205,0h-.761l-2.553-.017h-.021l0-.021-.055-.424c-.157-1.24-.3-2.346-.39-3.069l.015.013-.68-.014-.181-.006a.4.4,0,0,1-.062,0,.335.335,0,0,1,.062,0l.181,0h.693v.013c.1.723.243,1.829.408,3.067.019.145.037.288.055.424l-.024-.021,2.553.033.76.015.205.006A.4.4,0,0,1,316.206,327.69Z" transform="translate(-311.239 -324.149)" fill="#263238"/>
                        </g>
                        <g id="Group_16024" data-name="Group 16024">
                          <path id="Path_30131" data-name="Path 30131" d="M315.145,327.726l-2.573-.017a.052.052,0,0,1-.051-.046l-.44-3.456-.622-.012-.18-.006c-.071,0-.113,0-.113-.057s.04-.053.112-.056l.863,0a.067.067,0,0,1,.064.044l0,.014.416,3.141c.013.1.026.192.037.284l3.453.053c.082,0,.122.006.122.058s-.038.053-.122.056l-.206,0Z" transform="translate(-311.165 -324.074)" fill="#263238"/>
                        </g>
                      </g>
                    </g>
                  </g>
                </g>
                <g id="Group_16034" data-name="Group 16034" transform="translate(0.996 1.29)">
                  <g id="Group_16033" data-name="Group 16033">
                    <g id="Group_16032" data-name="Group 16032">
                      <g id="Group_16031" data-name="Group 16031">
                        <g id="Group_16029" data-name="Group 16029" transform="translate(0.052 0.051)">
                          <path id="Path_30132" data-name="Path 30132" d="M312.96,327.166h.071l.206,0H314l2.649.017-.023.019c.082-.445.172-.926.265-1.425l.139-.748.024.028-3.122-.038-.924-.016-.25-.006-.064,0-.021,0,.022,0h.064l.249,0,.924,0,3.123.022h.028l-.006.028c-.044.241-.092.492-.139.748-.094.5-.184.979-.267,1.424l0,.019h-.019L314,327.191l-.768-.014-.205-.006-.053,0A.048.048,0,0,1,312.96,327.166Z" transform="translate(-312.677 -324.982)" fill="#263238"/>
                        </g>
                        <g id="Group_16030" data-name="Group 16030">
                          <path id="Path_30133" data-name="Path 30133" d="M316.65,327.255h-.019l-3.678-.056c-.021,0-.068-.007-.068-.055a.051.051,0,0,1,.016-.037.069.069,0,0,1,.055-.017l.258,0h.768l2.587.017.377-2.023-4-.054-.2,0-.064,0c-.02,0-.072,0-.072-.055,0-.024.013-.054.074-.054l.313,0h.924l3.151.023a.052.052,0,0,1,.051.062l-.145.775c-.06.32-.118.633-.175.933l-.1.509A.053.053,0,0,1,316.65,327.255Z" transform="translate(-312.602 -324.908)" fill="#263238"/>
                        </g>
                      </g>
                    </g>
                  </g>
                </g>
                <g id="Group_16040" data-name="Group 16040" transform="translate(1.522 4.819)">
                  <g id="Group_16039" data-name="Group 16039">
                    <g id="Group_16038" data-name="Group 16038">
                      <g id="Group_16037" data-name="Group 16037">
                        <g id="Group_16035" data-name="Group 16035" transform="translate(0.052 0.052)">
                          <path id="Path_30134" data-name="Path 30134" d="M314.177,330.455s0-.032-.019-.086a.36.36,0,0,0-.13-.187.343.343,0,0,0-.322-.048.337.337,0,0,0-.006.632.344.344,0,0,0,.322-.041.366.366,0,0,0,.134-.185c.016-.053.017-.086.021-.085a.182.182,0,0,1,0,.089.356.356,0,0,1-.132.208.373.373,0,0,1-.358.055.379.379,0,0,1,.007-.716.375.375,0,0,1,.357.062.354.354,0,0,1,.127.21A.182.182,0,0,1,314.177,330.455Z" transform="translate(-313.435 -330.072)" fill="#263238"/>
                        </g>
                        <g id="Group_16036" data-name="Group 16036">
                          <path id="Path_30135" data-name="Path 30135" d="M313.79,330.86a.417.417,0,0,1-.146-.027.431.431,0,1,1,.416-.742.417.417,0,0,1,.145.242.3.3,0,0,1,0,.1.318.318,0,0,1-.006.1.409.409,0,0,1-.15.239A.43.43,0,0,1,313.79,330.86Zm.01-.718a.278.278,0,0,0-.1.018.286.286,0,1,0,.266.5.3.3,0,0,0,.114-.158.4.4,0,0,0,.015-.06l0-.011,0-.01a.4.4,0,0,0-.013-.06.313.313,0,0,0-.111-.161A.294.294,0,0,0,313.8,330.142Z" transform="translate(-313.36 -329.997)" fill="#263238"/>
                        </g>
                      </g>
                    </g>
                  </g>
                </g>
                <g id="Group_16046" data-name="Group 16046" transform="translate(3.832 4.84)">
                  <g id="Group_16045" data-name="Group 16045">
                    <g id="Group_16044" data-name="Group 16044">
                      <g id="Group_16043" data-name="Group 16043">
                        <g id="Group_16041" data-name="Group 16041" transform="translate(0.052 0.053)">
                          <path id="Path_30136" data-name="Path 30136" d="M317.509,330.487s0-.032-.02-.085a.352.352,0,0,0-.13-.188.344.344,0,0,0-.321-.048.338.338,0,1,0,.316.592.358.358,0,0,0,.134-.185c.017-.053.017-.085.021-.085a.182.182,0,0,1,0,.09.358.358,0,0,1-.131.207.373.373,0,0,1-.358.055.379.379,0,0,1,.007-.716.374.374,0,0,1,.356.062.358.358,0,0,1,.128.21A.182.182,0,0,1,317.509,330.487Z" transform="translate(-316.766 -330.103)" fill="#263238"/>
                        </g>
                        <g id="Group_16042" data-name="Group 16042">
                          <path id="Path_30137" data-name="Path 30137" d="M317.121,330.892a.432.432,0,0,1-.137-.84.42.42,0,0,1,.551.313.3.3,0,0,1,0,.1.336.336,0,0,1-.006.1.414.414,0,0,1-.15.239A.432.432,0,0,1,317.121,330.892Zm.01-.718a.277.277,0,0,0-.1.017.286.286,0,1,0,.267.5.317.317,0,0,0,.115-.159.347.347,0,0,0,.013-.06l0-.01v-.01a.378.378,0,0,0-.013-.061.3.3,0,0,0-.11-.159A.292.292,0,0,0,317.131,330.174Z" transform="translate(-316.691 -330.027)" fill="#263238"/>
                        </g>
                      </g>
                    </g>
                  </g>
                </g>
                <g id="Group_16050" data-name="Group 16050" transform="translate(4.213)">
                  <g id="Group_16049" data-name="Group 16049">
                    <g id="Group_16048" data-name="Group 16048">
                      <g id="Group_16047" data-name="Group 16047">
                        <path id="Path_30138" data-name="Path 30138" d="M319.289,324.082a1.024,1.024,0,1,1-1.015-1.034A1.024,1.024,0,0,1,319.289,324.082Z" transform="translate(-317.241 -323.048)" fill="#263238"/>
                      </g>
                    </g>
                  </g>
                </g>
              </g>
              <g id="Group_16060" data-name="Group 16060" transform="translate(4.743 0.553)">
                <g id="Group_16055" data-name="Group 16055" transform="translate(0.505)">
                  <g id="Group_16054" data-name="Group 16054">
                    <g id="Group_16053" data-name="Group 16053">
                      <g id="Group_16052" data-name="Group 16052">
                        <path id="Path_30139" data-name="Path 30139" d="M318.752,324.879s.006.008.008.024h-.016a4.152,4.152,0,0,1-.008-.517,2.531,2.531,0,0,1,.044-.539,2.464,2.464,0,0,1,.015.541,4.144,4.144,0,0,1-.035.517h-.016C318.747,324.887,318.75,324.879,318.752,324.879Z" transform="translate(-318.733 -323.846)" fill="#fff"/>
                      </g>
                    </g>
                  </g>
                </g>
                <g id="Group_16059" data-name="Group 16059" transform="translate(0 0.496)">
                  <g id="Group_16058" data-name="Group 16058">
                    <g id="Group_16057" data-name="Group 16057">
                      <g id="Group_16056" data-name="Group 16056">
                        <path id="Path_30140" data-name="Path 30140" d="M319.082,324.608a2.456,2.456,0,0,1-.54.015,2.489,2.489,0,0,1-.537-.044,2.451,2.451,0,0,1,.539-.015A2.5,2.5,0,0,1,319.082,324.608Z" transform="translate(-318.005 -324.561)" fill="#fff"/>
                      </g>
                    </g>
                  </g>
                </g>
              </g>
            </g>
          </g>
          <g id="Group_16065" data-name="Group 16065" transform="translate(48.91 31.881)">
            <g id="Group_16064" data-name="Group 16064">
              <g id="Group_16063" data-name="Group 16063">
                <path id="Path_30141" data-name="Path 30141" d="M283.185,327.9c0,.1-3.259.181-7.278.181s-7.279-.081-7.279-.181,3.259-.18,7.279-.18S283.185,327.8,283.185,327.9Z" transform="translate(-268.627 -327.724)" fill="#263238"/>
              </g>
            </g>
          </g>
        </g>
        <g id="Group_16151" data-name="Group 16151" transform="translate(149.038 437.354)">
          <g id="Group_16150" data-name="Group 16150" transform="translate(0 0)">
            <g id="Group_16129" data-name="Group 16129" transform="translate(2.835 6.718)">
              <g id="Group_16128" data-name="Group 16128">
                <g id="Group_16127" data-name="Group 16127">
                  <g id="Group_16126" data-name="Group 16126">
                    <g id="Group_16125" data-name="Group 16125">
                      <g id="Group_16124" data-name="Group 16124">
                        <path id="Rectangle_18317" data-name="Rectangle 18317" d="M2.494,0H18.988a2.494,2.494,0,0,1,2.494,2.494v9.364a2.493,2.493,0,0,1-2.493,2.493H2.494A2.494,2.494,0,0,1,0,11.857V2.494A2.494,2.494,0,0,1,2.494,0Z" transform="matrix(1, -0.002, 0.002, 1, 0, 0.036)" fill="#b74d38"/>
                      </g>
                    </g>
                  </g>
                </g>
              </g>
            </g>
            <g id="Group_16136" data-name="Group 16136" transform="translate(5.131)">
              <g id="Group_16135" data-name="Group 16135">
                <g id="Group_16134" data-name="Group 16134">
                  <g id="Group_16133" data-name="Group 16133">
                    <g id="Group_16132" data-name="Group 16132">
                      <g id="Group_16131" data-name="Group 16131">
                        <g id="Group_16130" data-name="Group 16130">
                          <path id="Path_30161" data-name="Path 30161" d="M234.88,303.832a1.075,1.075,0,0,1,0-.275l.044-.784a17.026,17.026,0,0,0-.028-2.87,6.453,6.453,0,0,0-1.645-3.794,4.229,4.229,0,0,0-2.121-1.179,11.868,11.868,0,0,0-2.668-.223,7.752,7.752,0,0,0-4.871,1.388,4.641,4.641,0,0,0-1.327,1.772,6.776,6.776,0,0,0-.5,1.892,14.256,14.256,0,0,0,0,2.865c.026.317.047.576.064.782a1.165,1.165,0,0,1,.008.275,1.1,1.1,0,0,1-.058-.269c-.029-.177-.069-.439-.111-.777a12.872,12.872,0,0,1-.085-2.9,6.849,6.849,0,0,1,.49-1.955,4.812,4.812,0,0,1,1.371-1.869,5.939,5.939,0,0,1,2.3-1.132,11.154,11.154,0,0,1,2.72-.329,11.887,11.887,0,0,1,2.729.235,4.44,4.44,0,0,1,2.229,1.257,6.556,6.556,0,0,1,1.656,3.937,15.063,15.063,0,0,1-.051,2.9c-.034.34-.067.6-.091.781A1.148,1.148,0,0,1,234.88,303.832Z" transform="translate(-221.534 -294.457)" fill="#263238"/>
                        </g>
                      </g>
                    </g>
                  </g>
                </g>
              </g>
            </g>
            <g id="Group_16142" data-name="Group 16142" transform="translate(0.122 6.643)">
              <g id="Group_16141" data-name="Group 16141">
                <g id="Group_16140" data-name="Group 16140">
                  <g id="Group_16139" data-name="Group 16139">
                    <g id="Group_16138" data-name="Group 16138">
                      <g id="Group_16137" data-name="Group 16137">
                        <path id="Rectangle_18318" data-name="Rectangle 18318" d="M2.494,0H18.988a2.493,2.493,0,0,1,2.493,2.493v9.364a2.494,2.494,0,0,1-2.494,2.494H2.494A2.494,2.494,0,0,1,0,11.857V2.494A2.494,2.494,0,0,1,2.494,0Z" transform="translate(0 0.036) rotate(-0.096)" fill="#f16427"/>
                      </g>
                    </g>
                  </g>
                </g>
              </g>
            </g>
            <g id="Group_16149" data-name="Group 16149" transform="translate(0 6.534)">
              <g id="Group_16148" data-name="Group 16148">
                <g id="Group_16147" data-name="Group 16147">
                  <g id="Group_16146" data-name="Group 16146">
                    <g id="Group_16145" data-name="Group 16145">
                      <g id="Group_16144" data-name="Group 16144">
                        <g id="Group_16143" data-name="Group 16143">
                          <path id="Path_30162" data-name="Path 30162" d="M234.033,318.343a2.248,2.248,0,0,0,.669-.164,1.755,1.755,0,0,0,.648-.508,1.706,1.706,0,0,0,.36-1.045c-.012-1.753-.03-4.264-.051-7.36q-.006-1.166-.012-2.44c-.006-.419.006-.868-.016-1.286a1.619,1.619,0,0,0-.6-1.082,1.73,1.73,0,0,0-1.238-.359l-1.438.006-3,.01-13.368.032a1.61,1.61,0,0,0-1.367.77,1.567,1.567,0,0,0-.232.768c0,.288,0,.577,0,.863q0,1.733,0,3.411c0,2.236,0,4.393,0,6.448a2.156,2.156,0,0,0,.074.723,1.629,1.629,0,0,0,1.591,1.131h2.832l5.083.007,7.36.028,2,.02.521.012a.963.963,0,0,1,.177.013.994.994,0,0,1-.177.013l-.521.013-2,.027-7.361.052-5.083.024-2.832.011a1.845,1.845,0,0,1-1.406-.593,1.874,1.874,0,0,1-.4-.69,2.379,2.379,0,0,1-.087-.792c-.006-2.055-.012-4.212-.018-6.448q0-1.678-.008-3.411c0-.291,0-.573,0-.874a1.814,1.814,0,0,1,.268-.888,1.86,1.86,0,0,1,1.581-.89l13.368-.012h4.44a1.952,1.952,0,0,1,1.371.412,1.825,1.825,0,0,1,.664,1.222c.022.462,0,.879.01,1.308q0,1.272,0,2.439c-.012,3.1-.021,5.609-.028,7.362a1.758,1.758,0,0,1-1.085,1.6A1.371,1.371,0,0,1,234.033,318.343Z" transform="translate(-214.134 -303.88)" fill="#263238"/>
                        </g>
                      </g>
                    </g>
                  </g>
                </g>
              </g>
            </g>
          </g>
        </g>
        <g id="Group_15742" data-name="Group 15742" transform="translate(17.711 215.564)">
          <g id="Group_15741" data-name="Group 15741" transform="translate(201.613 71.4)">
            <g id="Group_15740" data-name="Group 15740">
              <path id="Path_30049" data-name="Path 30049" d="M201.724,79.436a1.3,1.3,0,0,1,.2-.015l.555-.021,2.044-.053-.064.065q-.012-.683-.026-1.484c0-.276-.024-.534,0-.856a.8.8,0,0,1,.7-.64c.333-.007.619-.022.981-.005a.806.806,0,0,1,.681.8c.008.692.016,1.415.025,2.164l-.107-.106,2.581-.027-.111.114c-.01-1.04-.019-2.116-.029-3.217q0-.412-.007-.819a.821.821,0,0,0-.359-.6l-1.129-1.113-1.088-1.074-.528-.522c-.182-.176-.323-.353-.528-.4a.683.683,0,0,0-.581.111c-.154.129-.323.318-.48.471l-.927.934c-.583.6-1.192,1.16-1.631,1.678a1.821,1.821,0,0,0-.13.957q0,.478,0,.908-.007.832-.012,1.465c-.005.369-.01.677-.013.938a2.861,2.861,0,0,1-.015.34,2.137,2.137,0,0,1-.019-.309c-.008-.256-.018-.559-.029-.921q-.015-.64-.036-1.478-.009-.44-.018-.929,0-.248-.009-.508a1.085,1.085,0,0,1,.143-.545c.48-.589,1.048-1.105,1.635-1.729l.919-.943c.167-.163.3-.323.5-.5a.891.891,0,0,1,.76-.149,1.4,1.4,0,0,1,.625.446l.53.519,1.093,1.071,1.131,1.11a1.048,1.048,0,0,1,.428.757q0,.409.007.824c.008,1.1.016,2.177.024,3.217v.113H209.3l-2.582.015h-.107V79.4c0-.75-.007-1.473-.01-2.165a.611.611,0,0,0-.511-.616c-.293-.015-.647-.006-.934,0a.624.624,0,0,0-.547.493c-.025.256-.007.561-.012.823q0,.8,0,1.484v.066h-.064l-2.083-.018-.542-.011A.853.853,0,0,1,201.724,79.436Z" transform="translate(-201.613 -71.4)" fill="#263238"/>
            </g>
          </g>
        </g>
        <g id="Group_16225" data-name="Group 16225" transform="translate(-174.748 214.679)">
          <g id="Group_16217" data-name="Group 16217" transform="translate(310.691 73.87)">
            <g id="Group_16216" data-name="Group 16216">
              <g id="Group_16215" data-name="Group 16215">
                <path id="Path_30189" data-name="Path 30189" d="M322.826,73.973c0,.081-2.715.168-6.066.2s-6.068-.015-6.069-.095,2.715-.167,6.066-.2S322.825,73.893,322.826,73.973Z" transform="translate(-310.691 -73.87)" fill="#263238"/>
              </g>
            </g>
          </g>
          <g id="Group_16220" data-name="Group 16220" transform="translate(310.717 76.975)">
            <g id="Group_16219" data-name="Group 16219">
              <g id="Group_16218" data-name="Group 16218">
                <path id="Path_30190" data-name="Path 30190" d="M322.853,77.311c0,.08-2.715.167-6.065.2s-6.069-.015-6.069-.095,2.715-.168,6.066-.2S322.853,77.231,322.853,77.311Z" transform="translate(-310.719 -77.207)" fill="#263238"/>
              </g>
            </g>
          </g>
          <g id="Group_16223" data-name="Group 16223" transform="translate(310.742 80.079)">
            <g id="Group_16222" data-name="Group 16222">
              <g id="Group_16221" data-name="Group 16221">
                <path id="Path_30191" data-name="Path 30191" d="M322.881,80.648c0,.081-2.715.168-6.066.2s-6.068-.016-6.069-.1,2.715-.167,6.067-.2S322.88,80.568,322.881,80.648Z" transform="translate(-310.746 -80.545)" fill="#263238"/>
              </g>
            </g>
          </g>
        </g>
        <g id="Group_15415" data-name="Group 15415" transform="translate(213.177 415.579)">
          <path id="Path_1215" data-name="Path 1215" d="M565.847,1186.515s-7.254,5.394-8.668,5.067,5.3-5.823,5.3-5.823c-2.527-1.215-10.383-.453-10.383-.453s-2.616,8.438-3.907,7.773,2.7-7.353,2.7-7.353c-2.815-.17-6.267,1.92-6.267,1.92-4.726,3.732.311,9.608.311,9.608a14.364,14.364,0,0,1-3.954,5.55,12.47,12.47,0,0,0-4.558,8.784l.774.069s1.227-5.245,3.455-7.727c.087-.089.213-.219.368-.375.363-.336.617-.589.788-.776,1.109-1.066,2.642-2.423,3.38-2.555a1.421,1.421,0,0,1-.031-.371c.01.119.021.241.031.371.253,2.97,6.014,5.563,9.558,6.1s2.449-.923,1.227-3.084-5.086-3.127-5.968-4.122.941-1,3.077-.022,2.428,3.576,5.854,5.217,8.58-4.044,8.58-4.044c-2.73-.139-6.629-3.1-6.488-4.011s6.618,1.565,7.725,1.684,3.627-1.258,4.016-5.719S565.847,1186.515,565.847,1186.515Z" transform="translate(-497.937 -1156.329)" fill="#106d0b"/>
          <g id="Group_99" data-name="Group 99" transform="translate(0 12.789)">
            <path id="Path_1216" data-name="Path 1216" d="M267.452,1082.137s8.012-4.487,4.273-10.575c0,0-2.991-3.739-6.2-4.7,0,0,1.709,9.08,0,9.293s-1.175-10.255-1.175-10.255-8.439-4.059-11.75-3.739c0,0,5.234,8.866,3.525,8.652s-7.584-9.187-7.584-9.187-8.653-1.6-10.041,3.525.855,7.691,2.136,8.012,9.507.213,9.293,1.282-5.768,2.778-8.866,1.816c0,0,3.418,8.439,7.9,8.012s5.875-3.2,8.653-3.418,4.807.534,3.418,1.282-6.089.245-8.332,2.152-4.059,3.082.107,3.937,11.644.321,13.139-2.884Z" transform="translate(-238.065 -1061.39)" fill="#3c9737"/>
            <path id="Path_1217" data-name="Path 1217" d="M299.237,1126.16a17.041,17.041,0,0,1-2.137-7.8c-2.564-8.119-25-15.382-25-15.382,28.521,11.537,23.5,18.587,23.5,18.587.769.448,1.921,2.586,2.721,4.227.114.279.294.665.562,1.19h0c.109.237.2.431.255.567,1.468,3.674.691,10.019.691,10.019l.89.239A14.8,14.8,0,0,0,299.237,1126.16Z" transform="translate(-267.713 -1097.616)" fill="#3c9737"/>
          </g>
          <g id="Group_100" data-name="Group 100" transform="translate(35.19 0)">
            <path id="Path_1218" data-name="Path 1218" d="M517.83,989.589s-10.561-5.914-5.632-13.94c0,0,3.943-4.928,8.167-6.2,0,0-2.253,11.969,0,12.25s1.549-13.518,1.549-13.518,11.124-5.351,15.489-4.928c0,0-6.9,11.687-4.647,11.405s10-12.109,10-12.109,11.406-2.112,13.236,4.647-1.127,10.138-2.816,10.561-12.532.281-12.251,1.69,7.6,3.661,11.687,2.394c0,0-4.506,11.124-10.42,10.561s-7.745-4.224-11.406-4.506-6.336.7-4.506,1.69,8.026.323,10.983,2.837,5.351,4.063-.141,5.189-15.348.422-17.319-3.8Z" transform="translate(-510.887 -962.24)" fill="#3c9737"/>
            <path id="Path_1219" data-name="Path 1219" d="M560,1017.064s-29.57,9.575-32.95,20.277a22.462,22.462,0,0,1-2.816,10.279,19.5,19.5,0,0,0-1.96,15.354l1.173-.315s-1.025-8.364.91-13.207c.079-.178.193-.434.337-.747h0c.353-.691.591-1.2.741-1.568,1.054-2.162,2.574-4.98,3.587-5.572C529.019,1041.565,522.4,1032.271,560,1017.064Z" transform="translate(-520.105 -1009.993)" fill="#3c9737"/>
          </g>
          <path id="Path_1220" data-name="Path 1220" d="M422.259,1375.026a20.687,20.687,0,0,0,20.687-20.687H401.572A20.687,20.687,0,0,0,422.259,1375.026Z" transform="translate(-380.482 -1303.765)" fill="#fdce0c"/>
          <path id="Path_1221" data-name="Path 1221" d="M444.374,1374.867a20.7,20.7,0,0,1-23.256-20.529h5.139A20.69,20.69,0,0,0,444.374,1374.867Z" transform="translate(-397.507 -1303.764)" fill="#d6ae05"/>
          <path id="Path_1222" data-name="Path 1222" d="M438.749,1503.694H401.908a2.552,2.552,0,0,0-2.552,2.552H441.3A2.552,2.552,0,0,0,438.749,1503.694Z" transform="translate(-378.552 -1433.855)" fill="#d6ae05"/>
          <path id="Path_1223" data-name="Path 1223" d="M438.505,1354.338h-41.89a.317.317,0,1,0,0,.635h41.89a.317.317,0,0,0,0-.635Z" transform="translate(-375.888 -1303.764)" fill="#d86713"/>
        </g>
        <g id="Group_15886" data-name="Group 15886" transform="translate(-200.014 131.225)">
          <g id="Group_15885" data-name="Group 15885" transform="translate(300.284 199.945)">
            <g id="Group_15884" data-name="Group 15884">
              <g id="Group_15882" data-name="Group 15882" transform="translate(0.216 0.215)">
                <path id="Path_30090" data-name="Path 30090" d="M313.248,203.668a3.992,3.992,0,0,0-.965-2.193,3.832,3.832,0,0,0-1.964-1.285,3.147,3.147,0,0,0-2.43.407,3.113,3.113,0,0,0-1.018,1.09,3.1,3.1,0,0,0-3.3-1.564,3.828,3.828,0,0,0-2.032,1.174,3.989,3.989,0,0,0-1.085,2.139,4.862,4.862,0,0,0,.522,3,6.878,6.878,0,0,0,2.3,2.283c1.521.973,3.523,2.2,3.523,2.2s1.756-1.239,3.326-2.128a6.851,6.851,0,0,0,2.428-2.151A4.854,4.854,0,0,0,313.248,203.668Z" transform="translate(-300.409 -200.07)" fill="#273b60"/>
              </g>
              <g id="Group_15883" data-name="Group 15883">
                <path id="Path_30091" data-name="Path 30091" d="M306.9,211.261l-.12-.074c-.021-.012-2.022-1.234-3.525-2.2a7.043,7.043,0,0,1-2.375-2.356,5.056,5.056,0,0,1-.548-3.139,4.232,4.232,0,0,1,1.141-2.255A4.049,4.049,0,0,1,303.624,200a3.368,3.368,0,0,1,2.569.578,3.311,3.311,0,0,1,.769.793,3.336,3.336,0,0,1,.9-.867,3.371,3.371,0,0,1,2.6-.436,4.01,4.01,0,0,1,2.077,1.356,4.218,4.218,0,0,1,1.013,2.315,5.041,5.041,0,0,1-.719,3.1,7.057,7.057,0,0,1-2.5,2.221c-1.543.872-3.294,2.1-3.309,2.115Zm-2.679-10.886a2.763,2.763,0,0,0-.52.048,3.62,3.62,0,0,0-1.915,1.11,3.8,3.8,0,0,0-1.028,2.02,4.626,4.626,0,0,0,.494,2.868,6.643,6.643,0,0,0,2.235,2.205c1.287.827,2.943,1.843,3.4,2.121.42-.29,1.9-1.3,3.232-2.058a6.618,6.618,0,0,0,2.351-2.078,4.586,4.586,0,0,0,.652-2.835h0a3.776,3.776,0,0,0-.911-2.075,3.621,3.621,0,0,0-1.852-1.213,2.876,2.876,0,0,0-3.209,1.394l-.192.335-.184-.338a2.862,2.862,0,0,0-2.549-1.5Z" transform="translate(-300.284 -199.945)" fill="#273b60"/>
              </g>
            </g>
          </g>
        </g>
        <g id="Group_16226" data-name="Group 16226" transform="translate(-44.594 190.789)" opacity="0.41">
          <g id="Group_15885-2" data-name="Group 15885" transform="translate(300.284 199.945)">
            <g id="Group_15884-2" data-name="Group 15884">
              <g id="Group_15882-2" data-name="Group 15882" transform="translate(0.216 0.215)">
                <path id="Path_30090-2" data-name="Path 30090" d="M313.248,203.668a3.992,3.992,0,0,0-.965-2.193,3.832,3.832,0,0,0-1.964-1.285,3.147,3.147,0,0,0-2.43.407,3.113,3.113,0,0,0-1.018,1.09,3.1,3.1,0,0,0-3.3-1.564,3.828,3.828,0,0,0-2.032,1.174,3.989,3.989,0,0,0-1.085,2.139,4.862,4.862,0,0,0,.522,3,6.878,6.878,0,0,0,2.3,2.283c1.521.973,3.523,2.2,3.523,2.2s1.756-1.239,3.326-2.128a6.851,6.851,0,0,0,2.428-2.151A4.854,4.854,0,0,0,313.248,203.668Z" transform="translate(-300.409 -200.07)" fill="#273b60"/>
              </g>
              <g id="Group_15883-2" data-name="Group 15883">
                <path id="Path_30091-2" data-name="Path 30091" d="M306.9,211.261l-.12-.074c-.021-.012-2.022-1.234-3.525-2.2a7.043,7.043,0,0,1-2.375-2.356,5.056,5.056,0,0,1-.548-3.139,4.232,4.232,0,0,1,1.141-2.255A4.049,4.049,0,0,1,303.624,200a3.368,3.368,0,0,1,2.569.578,3.311,3.311,0,0,1,.769.793,3.336,3.336,0,0,1,.9-.867,3.371,3.371,0,0,1,2.6-.436,4.01,4.01,0,0,1,2.077,1.356,4.218,4.218,0,0,1,1.013,2.315,5.041,5.041,0,0,1-.719,3.1,7.057,7.057,0,0,1-2.5,2.221c-1.543.872-3.294,2.1-3.309,2.115Zm-2.679-10.886a2.763,2.763,0,0,0-.52.048,3.62,3.62,0,0,0-1.915,1.11,3.8,3.8,0,0,0-1.028,2.02,4.626,4.626,0,0,0,.494,2.868,6.643,6.643,0,0,0,2.235,2.205c1.287.827,2.943,1.843,3.4,2.121.42-.29,1.9-1.3,3.232-2.058a6.618,6.618,0,0,0,2.351-2.078,4.586,4.586,0,0,0,.652-2.835h0a3.776,3.776,0,0,0-.911-2.075,3.621,3.621,0,0,0-1.852-1.213,2.876,2.876,0,0,0-3.209,1.394l-.192.335-.184-.338a2.862,2.862,0,0,0-2.549-1.5Z" transform="translate(-300.284 -199.945)" fill="#273b60"/>
              </g>
            </g>
          </g>
        </g>
      </g>
    </g>
  </g>
</svg>
