<svg xmlns="http://www.w3.org/2000/svg" xmlns:xlink="http://www.w3.org/1999/xlink" width="518" height="517" viewBox="0 0 518 517">
  <defs>
    <filter id="Rectangle_18504" x="0" y="0" width="518" height="517" filterUnits="userSpaceOnUse">
      <feOffset dy="19" input="SourceAlpha"/>
      <feGaussianBlur stdDeviation="25" result="blur"/>
      <feFlood flood-opacity="0.102"/>
      <feComposite operator="in" in2="blur"/>
      <feComposite in="SourceGraphic"/>
    </filter>
  </defs>
  <g id="Component_7_4" data-name="Component 7 – 4" transform="translate(75 56)">
    <g transform="matrix(1, 0, 0, 1, -75, -56)" filter="url(#Rectangle_18504)">
      <rect id="Rectangle_18504-2" data-name="Rectangle 18504" width="368" height="367" rx="19" transform="translate(75 56)" fill="#fff"/>
    </g>
    <g id="Group_16566" data-name="Group 16566" transform="translate(-3.5 -212.28)">
      <text id="Select_your_time_slots" data-name="Select your time slots" transform="translate(50 546)" fill="#273b60" font-size="25" font-family="SegoeUI-Bold, Segoe UI" font-weight="700"><tspan x="0" y="0">Select your time slots</tspan></text>
      <g id="Group_16237" data-name="Group 16237">
        <path id="Path_2919" data-name="Path 2919" d="M303.952,236.029s74.4-10.316,84.257,39.6c5.218,26.414,43.6,7.327,65.5,16.494,15.592,6.526,7.535,28.634,16.9,34.4,46.16,28.413,34.149,152.675,25.187,152.657l-307.814-.507s-24.9-37.255-2.359-59.011,7.063-31.7,4.324-40.111c-3.145-9.654-14.406-37.216,17.674-49.283,16.47-6.195,21.586-23.343,22.834-34.79,2.132-19.56,13.077-36.969,29.688-46.475C270.663,242.982,284.85,238.04,303.952,236.029Z" transform="translate(-152.686 24.821)" fill="#dee5eb" opacity="0.51"/>
        <ellipse id="Ellipse_803" data-name="Ellipse 803" cx="109.694" cy="18.765" rx="109.694" ry="18.765" transform="translate(78 460.586)" fill="#273b60" opacity="0.13"/>
        <ellipse id="Ellipse_800" data-name="Ellipse 800" cx="101.221" cy="101.221" rx="101.221" ry="101.221" transform="translate(91 256.509)" fill="#273b60"/>
        <path id="Path_29960" data-name="Path 29960" d="M83.757,0A83.757,83.757,0,1,1,0,83.757,83.757,83.757,0,0,1,83.757,0Z" transform="translate(73.623 356.073) rotate(-45)" fill="#fff"/>
        <path id="Path_29894" data-name="Path 29894" d="M637.412,231.818a3.018,3.018,0,0,1-2.137-.884l-23.667-23.669a3.015,3.015,0,0,1-.886-2.136V147.72a3.022,3.022,0,1,1,6.043,0v56.156l22.783,22.785a3.021,3.021,0,0,1-2.136,5.157Z" transform="translate(-424.905 155.825)" fill="#273b60"/>
        <rect id="Rectangle_18300" data-name="Rectangle 18300" width="75.059" height="53.981" rx="12.214" transform="translate(262.44 256.27)" fill="#ffc5ac"/>
        <g id="Group_15380" data-name="Group 15380" transform="translate(135.619 308.214)" opacity="0.49">
          <path id="Path_29895" data-name="Path 29895" d="M656.995,238.52l-6.835-6.837a38.618,38.618,0,1,1-26.983-71.05v-11.3A49.767,49.767,0,1,0,658.586,239.5,4.11,4.11,0,0,1,656.995,238.52Z" transform="translate(-580.47 -149.333)" fill="#273b60"/>
        </g>
        <g id="Group_15382" data-name="Group 15382" transform="translate(101.085 308.551)">
          <g id="Group_15381" data-name="Group 15381">
            <path id="Path_29896" data-name="Path 29896" d="M580.5,187.323s-10.187,2.184-15.736,24.03c-1.952,7.684,12.32,25.433,12.32,25.433Z" transform="translate(-550.24 -148.302)" fill="#fdce0c"/>
            <path id="Path_29897" data-name="Path 29897" d="M586.175,274.961l-.87,3.637a2.211,2.211,0,0,0,1.5,2.732l20.4,4.884a2.433,2.433,0,0,0,2.617-3.316c-.82-2.175-8.526-6.33-12.571-8.9l-8.191-2.279Z" transform="translate(-540.371 -107.986)" fill="#243d8e"/>
            <path id="Path_29898" data-name="Path 29898" d="M607.955,172.371s1.463-9.575,3.8-9.137h0a1.654,1.654,0,0,1,1.153,1.454l.186,2.518,3.425-5.657a1.3,1.3,0,0,1,2.209-.043c1.058,1.637,2.706,3.057,1.506,5.943-1.1,2.652-5.3,7.2-6.546,8.031l-1.829-.427Z" transform="translate(-529.517 -160.917)" fill="#ebb3af"/>
            <path id="Path_29899" data-name="Path 29899" d="M587.416,219.8,609.1,252.807l-5.609,47.571-12.513-.863,4.207-38.618-19.446-24.986Z" transform="translate(-544.908 -132.789)" fill="#16418f"/>
            <path id="Path_29900" data-name="Path 29900" d="M593.511,174.474s-1.141-10.6-7.764-9.392C574.9,167.067,566.926,176.2,576.725,191l9.083-2.867Z" transform="translate(-546.555 -158.973)" fill="#082934"/>
            <path id="Path_29901" data-name="Path 29901" d="M554.874,278.581v3.739a2.209,2.209,0,0,0,2.1,2.308h20.98a2.433,2.433,0,0,0,1.772-3.835c-1.3-1.924-9.765-4.172-14.3-5.731l-8.5-.307Z" transform="translate(-554.874 -106.536)" fill="#243d8e"/>
            <path id="Path_29902" data-name="Path 29902" d="M576.665,221.956h22.984L566.9,300.765l-11.981,3.214,20.188-65.462S575.669,229.073,576.665,221.956Z" transform="translate(-554.853 -131.758)" fill="#16418f"/>
            <path id="Path_29903" data-name="Path 29903" d="M592.379,186.864s9.447,34.518,7.349,52.287l-1.971.64a47.023,47.023,0,0,1-29.737-.226h0s.037-16.278,1.17-30.4c.669-8.353,3.387-21.24,12.006-22.232l.219-.152Z" transform="translate(-548.595 -148.563)" fill="#fdce0c"/>
            <path id="Path_29904" data-name="Path 29904" d="M575.232,187.408l1.917,9.37,9.341-1.909-.686-3.356a8.794,8.794,0,0,0,2.788-.1c5.306-1.085,6.172-6.676,4.847-13.16l-1.348-6.892a20.857,20.857,0,0,1-8.531,4.647l-1.15,4.912Z" transform="translate(-545.149 -155.928)" fill="#ffb27d"/>
            <path id="Path_29905" data-name="Path 29905" d="M576.921,180.394a2.63,2.63,0,1,1,3.131,2.2A2.71,2.71,0,0,1,576.921,180.394Z" transform="translate(-544.371 -153.192)" fill="#ffb27d"/>
            <path id="Path_29906" data-name="Path 29906" d="M580.077,178" transform="translate(-542.835 -152.756)" fill="#e5b88e"/>
            <path id="Path_29907" data-name="Path 29907" d="M578.293,196.012l26.627-2.546a4.628,4.628,0,0,0,3.513-2.2l16.175-23.089,7.455,2.989L614.009,201.37a6.07,6.07,0,0,1-4.124,2.858l-29.123,5.3a6.868,6.868,0,0,1-8.049-6.924h0A6.867,6.867,0,0,1,578.293,196.012Z" transform="translate(-546.353 -157.451)" fill="#fdce0c"/>
            <path id="Path_29908" data-name="Path 29908" d="M586.932,173.888s3.419,4.834,3.348,5.227-2.709,1.729-2.709,1.729Z" transform="translate(-539.56 -154.72)" fill="#ffb27d"/>
          </g>
        </g>
        <g id="Group_15384" data-name="Group 15384" transform="translate(81.291 264.423)">
          <path id="Path_29909" data-name="Path 29909" d="M583.476,125.529H553.893A14.435,14.435,0,0,0,539.5,139.922v13.193a14.435,14.435,0,0,0,14.393,14.393h29.584a14.269,14.269,0,0,0,3.538-.461L597.869,177.9v-37.98A14.435,14.435,0,0,0,583.476,125.529Z" transform="translate(-539.5 -125.529)" fill="#fee686"/>
          <g id="Group_15383" data-name="Group 15383" transform="translate(12.863 17.44)">
            <path id="Path_29910" data-name="Path 29910" d="M554.147,140.3a2.971,2.971,0,1,1-2.972-2.97A2.971,2.971,0,0,1,554.147,140.3Z" transform="translate(-548.205 -137.331)" fill="#273b60"/>
            <path id="Path_29911" data-name="Path 29911" d="M562.728,140.3a2.971,2.971,0,1,1-2.97-2.97A2.97,2.97,0,0,1,562.728,140.3Z" transform="translate(-544.106 -137.331)" fill="#273b60"/>
            <path id="Path_29912" data-name="Path 29912" d="M570.986,140.3a2.97,2.97,0,1,1-2.97-2.97A2.97,2.97,0,0,1,570.986,140.3Z" transform="translate(-540.16 -137.331)" fill="#273b60"/>
          </g>
        </g>
        <g id="Group_15385" data-name="Group 15385" transform="translate(279.856 272.516)">
          <path id="Path_29913" data-name="Path 29913" d="M688.317,121.333H644.847A1.853,1.853,0,0,0,643,123.18h0a1.852,1.852,0,0,0,1.847,1.847h43.469a1.853,1.853,0,0,0,1.847-1.847h0A1.853,1.853,0,0,0,688.317,121.333Z" transform="translate(-643 -121.333)" fill="#f16427"/>
          <path id="Path_29914" data-name="Path 29914" d="M678.527,127.5h-33.68A1.853,1.853,0,0,0,643,129.347h0a1.852,1.852,0,0,0,1.847,1.847h33.68a1.853,1.853,0,0,0,1.847-1.847h0A1.854,1.854,0,0,0,678.527,127.5Z" transform="translate(-643 -118.387)" fill="#f16427"/>
          <path id="Path_29915" data-name="Path 29915" d="M673.909,133.375H644.847A1.853,1.853,0,0,0,643,135.222h0a1.852,1.852,0,0,0,1.847,1.847h29.062a1.853,1.853,0,0,0,1.847-1.847h0A1.853,1.853,0,0,0,673.909,133.375Z" transform="translate(-643 -115.581)" fill="#f16427"/>
        </g>
        <g id="Group_15414" data-name="Group 15414" transform="translate(219.852 390.389)">
          <path id="Path_29916" data-name="Path 29916" d="M658.581,256.018c.58-34.9-15.011-49.223-15.011-49.223-3.8,19.256,2.275,39.876,5.659,49.223Z" transform="translate(-632.441 -199.4)" fill="#106d0b"/>
          <path id="Path_29917" data-name="Path 29917" d="M663.988,254.283c17-23.167,14.256-41.343,14.256-41.343-14.683,12.241-22.276,32.569-24.917,40.964l.433.38Z" transform="translate(-629.344 -197.665)" fill="#106d0b"/>
          <path id="Path_29918" data-name="Path 29918" d="M672.651,251.017c14.495-14.665,17.479-26.509,17.479-26.509a62.52,62.52,0,0,0-31.243,26.509Z" transform="translate(-627.775 -194.398)" fill="#3c9737"/>
          <path id="Path_29919" data-name="Path 29919" d="M653.706,252.373c-5.547-25.093-19.081-32.668-19.081-32.668.292,12.988,6.221,25.392,10.469,32.668Z" transform="translate(-634.625 -195.754)" fill="#3c9736"/>
          <path id="Path_29920" data-name="Path 29920" d="M664.254,257.647c7.354-40.873-4.4-56.619-4.4-56.619-14.019,14.22-8.706,47.845-7.026,56.619Z" transform="translate(-630.16 -201.028)" fill="#3c9737"/>
          <path id="Path_29921" data-name="Path 29921" d="M659.3,255.036c-1.071-15.081-1.8-30.3-2.12-45.361a.321.321,0,0,0-.321-.314h-.007a.322.322,0,0,0-.314.328c.317,15.056,1.048,30.27,2.119,45.347Z" transform="translate(-628.438 -198.675)" fill="#d7e9fd"/>
          <path id="Path_29922" data-name="Path 29922" d="M653.183,254.241h.672a155.808,155.808,0,0,1-4.35-18.084L644.8,212.436a.316.316,0,0,0-.377-.253.321.321,0,0,0-.251.377l4.705,23.722A158.476,158.476,0,0,0,653.183,254.241Z" transform="translate(-631.931 -197.88)" fill="#d7e9fd"/>
          <path id="Path_29923" data-name="Path 29923" d="M648.443,250.587c-3.879-8.258-7.422-16.719-10.541-25.261a.32.32,0,0,0-.6.221c3.09,8.466,6.6,16.851,10.435,25.041Z" transform="translate(-633.875 -194.226)" fill="#d7e9fd"/>
          <path id="Path_29924" data-name="Path 29924" d="M660.325,252.483c.6-1.141,1.177-2.306,1.675-3.5a62.547,62.547,0,0,0,2.309-7.082c.393-1.39.8-2.826,1.255-4.216a105.023,105.023,0,0,1,3.986-9.831c1.3-2.925,2.651-5.949,3.719-9.027a.321.321,0,0,0-.607-.212c-1.059,3.055-2.4,6.064-3.7,8.977a106.025,106.025,0,0,0-4.009,9.892c-.46,1.4-.868,2.846-1.263,4.242a62.415,62.415,0,0,1-2.284,7.009c-.532,1.277-1.158,2.524-1.811,3.747Z" transform="translate(-627.574 -196.122)" fill="#d7e9fd"/>
          <path id="Path_29925" data-name="Path 29925" d="M662.1,249.707c1.243-1.391,2.586-2.7,3.919-3.968l17.8-16.951a.321.321,0,0,0-.442-.465L665.58,245.275c-1.476,1.407-2.97,2.858-4.327,4.432Z" transform="translate(-627.106 -193.346)" fill="#d7e9fd"/>
          <g id="Group_15388" data-name="Group 15388" transform="translate(6.272 55.095)">
            <path id="Path_29926" data-name="Path 29926" d="M642.81,249.872l4.234,26.21a7.674,7.674,0,0,0,7.575,6.449h12.9a7.675,7.675,0,0,0,7.575-6.449l4.234-26.21Z" transform="translate(-638.586 -242.332)" fill="#fdce0c"/>
            <path id="Path_29927" data-name="Path 29927" d="M679.331,249.872H642.81l.586,3.632h28.157L667.9,276.082a7.673,7.673,0,0,1-7.575,6.449h7.193a7.674,7.674,0,0,0,7.575-6.449l3.648-22.578h0Z" transform="translate(-638.586 -242.332)" fill="#d6ae05"/>
            <path id="Path_29928" data-name="Path 29928" d="M680.669,243.992H643.332a3.828,3.828,0,0,0-3.816,3.816h0a3.827,3.827,0,0,0,3.816,3.816h37.337a3.827,3.827,0,0,0,3.816-3.816h0A3.828,3.828,0,0,0,680.669,243.992Z" transform="translate(-639.516 -243.992)" fill="#fdce0c"/>
          </g>
        </g>
      </g>
    </g>
  </g>
</svg>
